<svg width="124" height="110" viewBox="0 0 124 110" fill="none" xmlns="http://www.w3.org/2000/svg">
<g opacity="0.2">
<path d="M113.797 56.2552C115.195 60.4928 116.749 64.6669 117.94 68.9806C119.118 73.2435 120.944 77.3288 122.471 81.5029C122.536 81.6933 122.471 81.9216 122.471 82.1373C120.128 81.9724 117.772 81.8201 115.428 81.6171C113.59 81.4522 111.713 81.3507 109.926 81.2873C106.754 81.1731 103.66 80.4118 100.488 80.488C95.7499 80.488 90.9985 80.488 86.2602 80.4753C84.0981 81.2619 82.2597 82.5814 80.3825 83.8501C77.9097 85.5121 75.3334 87.0346 72.7959 88.6078C71.9803 88.0623 71.1646 87.5167 70.349 86.9585C70.1937 86.8697 70.0383 86.7047 69.8829 86.7047C65.6236 86.692 61.3771 86.692 57.1178 86.7174C56.9495 86.7174 56.7941 87.0219 56.6258 87.1742C55.9397 87.6055 55.2535 88.0242 54.5803 88.4556C53.933 88.1765 53.2597 87.9354 52.6513 87.5928C51.1106 86.7174 49.6348 85.7532 48.0812 84.9158C46.5794 84.0911 45.0129 83.3807 43.4852 82.6067C42.1258 81.9089 40.7794 81.1858 39.42 80.4626C34.5004 80.4626 29.5937 80.4626 24.6741 80.4753C24.1951 80.6783 23.7419 81.0208 23.237 81.0843C20.5701 81.4141 17.9031 81.0843 15.1714 81.4776C10.6661 82.1373 6.05714 81.9597 1.5 82.1246C2.16027 80.0693 2.80759 78.0012 3.46785 75.9459C4.30937 73.3323 5.0991 70.7061 6.03124 68.1305C7.17053 64.9714 8.42633 61.863 9.6174 58.7166C9.96695 57.7904 10.2388 56.8389 10.5366 55.9C10.8344 55.8746 11.1451 55.8746 11.4299 55.8112C14.6924 54.9992 17.9549 54.1745 21.2044 53.3372C23.4053 52.7662 25.6062 52.1953 27.7942 51.561C30.0857 50.8885 32.3384 50.14 34.6169 49.4295C35.2513 50.5587 34.2674 51.0408 33.7107 51.7386C32.7267 52.9819 31.6392 54.1872 30.9401 55.5701C30.2669 56.8896 28.6227 57.6128 28.6616 59.3129C28.8299 59.6554 29.0111 59.9853 29.1794 60.3279C29.283 62.066 31.0049 63.0937 31.3803 64.5274C32.0017 66.8745 33.5812 68.6507 34.4616 70.8202C35.4843 73.345 36.9602 75.6922 38.2678 78.1027C38.5138 78.5468 38.8763 78.9274 39.187 79.3334C39.2647 78.8386 39.3294 78.3565 39.42 77.8617C39.8861 75.2862 38.4491 72.5457 40.1968 70.0971C40.5593 70.1098 40.9477 70.059 41.2843 70.1351C45.0647 71.0486 48.7026 72.5203 52.6124 72.9137C52.9879 73.6495 53.5187 74.36 53.7258 75.1466C54.5285 78.1662 55.2017 81.2238 55.9914 84.2561C56.1468 84.8524 56.5999 85.3726 56.9106 85.9181C56.9883 85.3853 57.1696 84.8524 57.1048 84.3322C57.0272 83.609 56.6129 82.8985 56.6388 82.1881C56.8977 75.2481 56.2763 68.3335 55.9656 61.4063C55.9526 61.051 56.0173 60.6704 55.9397 60.3406C55.8879 60.1376 55.616 59.998 55.4477 59.8204C55.1111 57.968 55.3441 56.1157 54.9816 54.1999C54.2307 50.3049 54.4767 46.2323 54.2825 42.2358C54.1401 39.47 53.9589 36.7041 53.7517 33.951C53.7388 33.8114 53.3504 33.6973 53.1303 33.5704C52.5218 31.6039 51.9133 29.6754 50.9165 27.7977C49.2981 24.7273 48.1848 21.4033 46.9937 18.1553C46.9031 17.9143 46.1133 16.7597 47.1749 16.7597C57.1307 16.6836 67.0995 16.7217 77.0682 16.709C77.6378 16.709 77.8709 16.9374 77.7155 17.4068C77.1847 19.1323 76.8093 20.9465 75.9678 22.5324C75.3593 23.687 75.191 24.905 74.699 26.0088C73.6115 28.4828 72.291 30.8299 72.0191 33.5704C71.8896 33.8749 71.7602 34.1794 71.6437 34.4712C70.7892 36.2601 71.4106 38.2139 71.0093 40.117C70.1548 44.1516 71.3718 48.3511 70.3231 52.5252C69.7405 54.8343 70.2195 57.3971 70.2195 59.8331C70.2195 60.3786 70.2195 60.9242 70.2195 61.4824C70.0512 62.5228 69.7017 63.5631 69.7276 64.5908C69.8312 68.4985 69.4816 72.4062 70.0253 76.3265C70.4008 79.0416 70.1678 81.8455 70.2325 84.5986C70.2325 84.827 70.4785 85.0554 70.6079 85.2838C70.6986 85.0808 70.828 84.8904 70.8539 84.6748C71.0611 83.0635 70.9187 81.3126 71.5401 79.879C72.5111 77.6079 71.7343 74.8421 73.7151 72.9137C74.0387 72.8629 74.3753 72.8375 74.699 72.7487C78.2463 71.8606 81.8066 70.9725 85.3539 70.0844C86.8557 70.8076 86.1954 72.1651 86.2472 73.2689C86.3378 75.0832 86.2602 76.8975 86.286 78.7117C86.286 78.9147 86.4414 79.1304 86.532 79.3334C86.6226 79.1558 86.7003 78.9655 86.791 78.7879C87.4642 77.5064 88.1503 76.225 88.8106 74.9436C89.691 73.2562 90.5843 71.5815 91.4387 69.8814C92.2414 68.2574 92.9534 66.5827 93.782 64.9714C94.5588 63.4489 95.8793 62.1802 95.9829 60.3406C96.1512 60.1756 96.3195 59.998 96.5008 59.8331C96.7079 59.7696 97.0445 59.7569 97.0963 59.6301C97.3423 59.0718 96.8762 58.8561 96.5396 58.4755C94.9731 56.6866 93.5101 54.8089 92.0084 52.9692C91.1021 51.8654 89.8851 50.9647 89.6392 49.4422C94.7142 50.952 99.7762 52.5125 104.877 53.9588C107.816 54.7962 110.819 55.494 113.797 56.2552Z" stroke="black"/>
<path d="M34.6168 49.4293C32.3382 50.1398 30.0855 50.8883 27.794 51.5607C25.6061 52.1951 23.4052 52.766 21.2043 53.337C17.9547 54.1743 14.6923 54.999 11.4298 55.811C11.1449 55.8871 10.8342 55.8744 10.5365 55.8998C8.87931 53.984 7.19628 52.0809 5.56503 50.1398C5.46146 50.0129 5.59093 49.4927 5.72039 49.442C6.43244 49.1628 7.13155 48.7822 6.98914 47.9829C6.83378 47.1202 6.29003 46.4224 5.40968 45.953C4.64584 45.547 3.55834 44.8619 4.82709 43.9484C6.40655 42.7938 6.38066 41.9692 4.72352 40.9669C3.57129 40.2691 3.10521 39.5332 4.54227 38.404C6.66548 36.742 4.54227 34.8389 4.49048 33.05C4.42575 30.8932 3.80432 28.7617 3.40298 26.6176C2.9628 24.3085 2.40611 22.0248 2.01772 19.703C1.707 17.8633 2.84629 16.2901 3.33825 14.6027C3.81727 12.966 4.76236 11.4563 5.34494 9.83229C6.36771 7.00303 7.1186 4.05958 8.33556 1.31913C8.64628 0.608644 10.1222 1.21763 10.9378 1.852C10.9507 2.10574 10.8731 2.48636 11.0025 2.58786C13.3588 4.35139 15.728 6.06417 18.0972 7.80233C20.4534 9.5278 22.8097 11.2533 25.14 13.0041C27.548 14.8057 29.9431 16.6454 32.3641 18.447C34.319 19.906 36.3128 21.327 38.2806 22.786C40.0802 24.1182 41.8538 25.4757 43.6534 26.8079C45.4141 28.102 47.1748 29.3834 48.9485 30.6394C50.3337 31.629 51.7319 32.5806 53.1301 33.5448C53.3761 35.1434 51.8355 35.3337 51.0069 36.0569C48.7801 38.0234 46.6569 40.1168 44.2748 41.893C40.9864 44.3417 38.4878 47.7292 34.6168 49.4293Z" stroke="black"/>
<path d="M113.799 56.2547C110.822 55.4935 107.818 54.7957 104.853 53.9456C99.7653 52.4866 94.7033 50.9387 89.6154 49.4289C88.8127 49.2259 88.3596 48.5916 87.764 48.0968C84.5663 45.3817 81.2649 42.8188 78.0542 40.1291C75.8663 38.2895 73.769 36.3483 71.6328 34.4579C71.7623 34.1534 71.8917 33.8489 72.0083 33.5571C72.1636 33.5317 72.3708 33.5444 72.4873 33.4556C73.9632 32.3518 75.4261 31.2353 76.902 30.1315C79.064 28.5203 81.252 26.9344 83.427 25.3358C85.0323 24.1558 86.6118 22.9505 88.2301 21.7833C89.939 20.54 91.6738 19.3347 93.3828 18.0786C95.4671 16.5435 97.4997 14.9322 99.597 13.4224C101.578 11.976 103.649 10.6566 105.643 9.23558C107.313 8.04297 108.931 6.77424 110.55 5.5182C111.715 4.6174 112.828 3.66585 113.968 2.72699C114.783 2.14338 115.884 0.798523 116.596 1.90232C117.554 3.37404 117.644 5.34058 118.24 7.06605C119.185 9.81919 120.208 12.5343 121.218 15.262C122.253 18.0659 122.59 20.8571 121.269 23.6737C120.972 24.2954 120.79 24.9932 120.687 25.6783C120.259 28.6344 120.026 31.616 119.444 34.534C119.185 35.8028 118.084 37.4648 119.055 38.2514C122.331 40.9284 118.758 41.0807 117.8 42.2352C117.618 42.4509 117.618 43.1741 117.709 43.2122C121.865 44.8108 118.965 46.2825 117.502 47.4497C115.806 48.8073 117.593 48.8199 118.084 49.2894C118.538 49.7207 119.107 49.8603 118.382 50.6723C116.764 52.4358 115.314 54.377 113.799 56.2547Z" stroke="black"/>
<path d="M72.7812 88.6072C75.3187 87.0213 77.8951 85.5115 80.3678 83.8494C82.2451 82.5807 84.0835 81.2612 86.2455 80.4746C86.5044 82.2508 86.2067 84.0144 86.6339 85.854C87.3071 88.7975 87.1647 91.9186 87.4236 94.9635C87.5402 96.3845 87.7343 97.8055 87.9803 99.2138C88.0062 99.3406 88.8866 99.5056 88.9513 99.4041C89.6116 98.2876 90.0259 96.9935 90.8285 96.0166C91.6442 95.0143 92.0843 93.8724 92.7317 92.8194C93.6897 91.2334 94.9196 89.7998 95.9553 88.2646C96.6803 87.1989 97.2758 86.0443 97.9232 84.9279C98.7776 83.4561 99.6321 81.9717 100.5 80.5C103.671 80.4239 106.766 81.1851 109.937 81.2993C111.724 81.3627 113.614 81.4769 115.44 81.6292C117.783 81.8322 120.139 81.9717 122.482 82.1493C121.796 84.7375 121.11 87.3131 120.424 89.9013C119.699 92.6164 118.948 95.3314 118.236 98.0465C117.356 101.421 116.695 104.885 115.543 108.171C114.999 109.719 113.653 108.272 112.734 108.006C109.187 107.004 105.639 105.951 102.131 104.834C97.6513 103.401 93.1977 101.891 88.7312 100.406C88.4335 100.292 88.071 100.254 87.8379 100.064C84.2906 97.3487 80.7821 94.5702 77.2089 91.8932C75.8625 90.8782 74.3737 90.0408 72.9625 89.1274C72.8848 88.937 72.833 88.7721 72.7812 88.6072Z" stroke="black"/>
<path d="M1.5 82.124C6.05714 81.959 10.6661 82.1366 15.1585 81.4769C17.8902 81.0836 20.5571 81.4135 23.2241 81.0836C23.716 81.0202 24.1821 80.6903 24.6611 80.4746C24.7906 82.8091 26.8491 84.1159 27.7942 86.0316C28.4544 87.3765 29.5419 88.5057 30.3317 89.7871C31.3803 91.4872 32.2995 93.2761 33.3352 94.9889C34.4227 96.8032 35.575 98.5794 36.7013 100.381C35.07 100.927 33.4388 101.485 31.8075 102.018C29.1794 102.88 26.5513 103.769 23.9102 104.606C21.321 105.418 18.7187 106.154 16.1294 106.978C13.9027 107.689 11.7277 108.577 9.47499 109.186C7.74017 109.655 8.34865 107.943 8.1674 107.296C6.7174 102.36 5.39687 97.3868 4.07634 92.4007C3.17009 89.0005 2.35446 85.5622 1.5 82.124Z" stroke="black"/>
<path d="M113.966 2.72699C112.827 3.65316 111.713 4.6047 110.548 5.51819C108.93 6.77423 107.312 8.04296 105.641 9.23556C103.648 10.6565 101.576 11.976 99.5955 13.4097C97.4982 14.9195 95.4656 16.5308 93.3812 18.0659C91.6853 19.322 89.9375 20.5272 88.2286 21.7706C86.6232 22.9378 85.0308 24.1431 83.4254 25.323C81.2504 26.9216 79.0625 28.5075 76.9004 30.1188C75.4246 31.2099 73.9616 32.3391 72.4857 33.4429C72.3692 33.5317 72.175 33.5063 72.0067 33.5444C72.2915 30.8039 73.5991 28.4568 74.6866 25.9828C75.1656 24.879 75.3469 23.6483 75.9553 22.5065C76.7839 20.9206 77.1594 19.1063 77.7031 17.3808C77.8455 16.8987 77.6254 16.683 77.0558 16.683C67.0871 16.6957 57.1313 16.6703 47.1625 16.7337C46.1139 16.7464 46.8907 17.8883 46.9813 18.1293C48.1853 21.39 49.2987 24.714 50.904 27.7717C51.888 29.6494 52.5094 31.5779 53.1179 33.5444C51.7197 32.5802 50.3215 31.6286 48.9362 30.639C47.1625 29.3703 45.3889 28.1016 43.6411 26.8075C41.8416 25.4753 40.0679 24.1177 38.2683 22.7856C36.3005 21.3265 34.3197 19.9056 32.3518 18.4465C29.9309 16.6449 27.5487 14.8053 25.1277 13.0037C22.7844 11.2528 20.4282 9.52737 18.0849 7.8019C15.7157 6.06374 13.3336 4.35096 10.9903 2.58743C10.8608 2.48593 10.9385 2.10531 10.9255 1.85156C12.7639 2.48593 14.6411 3.04417 16.4407 3.76734C18.6286 4.65545 20.7389 5.7085 22.901 6.63467C25.4255 7.72578 27.9759 8.76613 30.5264 9.7938C33.3099 10.923 36.1322 11.976 38.9157 13.1179C41.0389 13.9806 43.1232 14.9448 45.2335 15.833C45.609 15.9979 46.0232 16.1374 46.4246 16.1374C56.9241 16.1628 67.4366 16.3404 77.9362 16.0359C80.4996 15.9598 83.0111 14.3232 85.5357 13.3843C88.2415 12.3693 90.9602 11.3797 93.6531 10.314C96.7214 9.096 99.7638 7.78921 102.832 6.57123C105.577 5.46744 108.334 4.38902 111.118 3.37404C112.024 3.04417 112.84 2.18143 113.966 2.72699Z" stroke="black"/>
<path d="M86.7667 101.131C85.2001 102.121 83.6725 103.161 82.0542 104.075C80.3582 105.026 78.6104 105.876 76.8627 106.739C75.6069 107.361 74.3381 107.931 73.0694 108.515C67.7872 108.515 62.4921 108.515 57.21 108.502C56.8346 108.502 56.5627 108.553 56.6145 108.997C53.0024 109.403 50.2966 107.031 47.1636 105.978C45.2216 105.318 43.3962 104.354 41.5708 103.415C40.4833 102.857 39.4993 102.083 38.4766 101.41C39.5252 101.144 40.3667 101.233 41.506 101.651C43.9917 102.59 46.7234 102.857 49.3515 103.44C50.2319 103.63 51.177 103.783 51.902 104.252C52.2256 104.455 52.4846 104.582 52.7823 104.531C52.9248 104.506 53.0931 104.151 53.106 103.935C53.2614 102.159 52.7694 100.332 53.5203 98.5809C60.2913 97.2615 67.0493 97.566 73.8073 98.5936C74.4546 99.2661 74.1439 99.8751 73.9497 100.674C73.652 101.854 73.5225 103.199 73.8203 104.354C74.0015 105.051 74.0921 103.973 74.4935 103.897C76.9792 103.415 79.5167 103.009 81.86 102.146C82.4944 101.905 83.5301 102.286 84.0479 101.271C84.3586 100.674 85.5238 101.575 86.1711 100.801C86.5207 100.408 86.7667 100.649 86.7667 101.131Z" stroke="black"/>
<path d="M36.6886 100.394C35.5622 98.5921 34.41 96.8158 33.3225 95.0016C32.2868 93.2888 31.3676 91.4999 30.319 89.7998C29.5292 88.5184 28.4417 87.3765 27.7815 86.0443C26.8364 84.1286 24.7779 82.8345 24.6484 80.4873C29.5681 80.4873 34.4747 80.4873 39.3944 80.4746C39.1613 81.9083 39.4203 83.3039 38.993 84.8137C38.2162 87.4907 38.0479 90.358 37.7372 93.1492C37.4783 95.4583 37.3747 97.7928 37.1935 100.115C37.1029 100.203 37.0252 100.292 36.9346 100.394C36.8569 100.394 36.7663 100.394 36.6886 100.394Z" stroke="black"/>
<path d="M36.9336 100.395C37.0242 100.306 37.1019 100.217 37.1925 100.116C38.8497 98.9994 40.4939 97.8703 42.1639 96.7538C45.0251 94.8634 47.8086 92.8207 50.7992 91.1587C52.0938 90.4482 52.8188 88.875 54.5148 88.8496C54.476 89.5474 54.463 90.2579 54.3853 90.943C54.1005 93.4932 53.8028 96.0306 53.5179 98.5808C52.767 100.319 53.272 102.146 53.1037 103.935C53.0778 104.15 52.9224 104.506 52.78 104.531C52.4822 104.582 52.2233 104.455 51.8996 104.252C51.1746 103.795 50.2296 103.643 49.3492 103.44C46.7211 102.856 43.9894 102.577 41.5037 101.651C40.3644 101.22 39.5099 101.144 38.4742 101.41C37.9564 101.067 37.4514 100.725 36.9336 100.395Z" stroke="black"/>
<path d="M86.7672 101.129C86.7672 100.66 86.5212 100.406 86.1846 100.825C85.5502 101.599 84.3721 100.698 84.0614 101.294C83.5436 102.309 82.5078 101.941 81.8735 102.17C79.5301 103.032 76.9926 103.438 74.5069 103.92C74.1056 103.997 74.015 105.088 73.8337 104.377C73.5359 103.223 73.6525 101.878 73.9632 100.698C74.1703 99.9112 74.4681 99.2895 73.8208 98.6171C73.8208 98.1984 73.8466 97.7797 73.7949 97.3737C73.4194 94.6332 72.6815 91.9182 72.9533 89.1016C74.3775 90.0151 75.8534 90.8524 77.1998 91.8674C80.773 94.5571 84.2815 97.323 87.8288 100.038C88.0748 100.228 88.4244 100.266 88.7221 100.381C88.0619 100.634 87.4145 100.875 86.7672 101.129Z" stroke="black"/>
<path d="M56.6118 108.997C56.56 108.54 56.8319 108.489 57.2073 108.502C62.4895 108.514 67.7845 108.514 73.0667 108.514C72.8725 108.679 72.6653 108.984 72.4582 108.984C67.1761 109.009 61.8939 109.009 56.6118 108.997Z" stroke="black"/>
<path d="M34.6162 49.4304C38.4872 47.7303 40.9988 44.3428 44.2742 41.9068C46.6564 40.1306 48.7796 38.0499 51.0064 36.0707C51.8349 35.3348 53.3626 35.1572 53.1296 33.5586C53.3497 33.6855 53.7381 33.7997 53.751 33.9392C53.9581 36.705 54.1523 39.4582 54.2818 42.224C54.476 46.2205 54.23 50.2931 54.9809 54.1881C55.3564 56.1039 55.1233 57.9562 55.447 59.8085C46.514 59.6436 37.5939 59.466 28.6608 59.3011C28.622 57.601 30.2662 56.8778 30.9394 55.5583C31.6385 54.1754 32.726 52.9701 33.7099 51.7268C34.2666 51.029 35.2376 50.5468 34.6162 49.4304Z" stroke="black"/>
<path d="M71.6289 34.4336C73.765 36.324 75.8623 38.2778 78.0503 40.1048C81.261 42.7945 84.5753 45.37 87.7601 48.0724C88.3556 48.5799 88.8088 49.2016 89.6114 49.4046C89.8574 50.9271 91.0744 51.8279 91.9806 52.9317C93.4954 54.7713 94.9454 56.649 96.5119 58.4379C96.8356 58.8186 97.3146 59.0342 97.0686 59.5925C97.0168 59.7194 96.6802 59.732 96.473 59.7955C96.5378 59.2119 96.1235 59.288 95.761 59.288C89.3266 59.326 82.8923 59.1611 76.4708 59.7701C74.3994 59.9604 72.2891 59.8082 70.2048 59.8082C70.2048 57.3595 69.7257 54.7967 70.3083 52.5003C71.357 48.3389 70.153 44.1267 70.9945 40.0921C71.3958 38.1763 70.7744 36.2352 71.6289 34.4336Z" stroke="black"/>
<path d="M72.9391 89.1032C72.6673 91.907 73.4052 94.6221 73.7807 97.3753C73.8324 97.7812 73.8066 98.1999 73.8066 98.6186C67.0485 97.5782 60.2776 97.2738 53.5195 98.6059C53.8173 96.0558 54.1151 93.5183 54.3869 90.9682C54.4646 90.2704 54.4776 89.5726 54.5164 88.8748C54.5294 88.7479 54.5423 88.621 54.5552 88.4942C55.2414 88.0628 55.9276 87.6441 56.6008 87.2128C61.0285 87.2128 65.4691 87.2254 69.8967 87.2128C70.0391 87.2128 70.1816 87.0605 70.324 86.9844C71.1396 87.5299 71.9552 88.0755 72.7708 88.6337C72.8356 88.7733 72.8874 88.9382 72.9391 89.1032Z" stroke="black"/>
<path d="M28.6602 59.3008C37.5932 59.4657 46.5133 59.6433 55.4463 59.8083C55.3945 60.9374 55.3557 62.0032 54.9025 63.145C54.32 64.6167 54.8637 66.5579 54.1646 67.9408C53.4396 69.4125 54.5918 71.3156 52.857 72.3813C52.4686 71.7089 52.2485 70.7066 51.6659 70.4402C49.6075 69.4886 51.6271 64.0204 46.824 66.2788C44.4807 67.3825 42.1244 68.4736 39.7682 69.5774C38.4088 70.0469 38.124 68.7908 37.4767 68.1691C35.7936 66.5579 34.1753 64.8705 32.4923 63.2592C31.4307 62.2315 30.2785 61.2927 29.178 60.3158C28.9968 59.9732 28.8285 59.6433 28.6602 59.3008Z" stroke="black"/>
<path d="M70.207 59.8066C72.3043 59.8066 74.4017 59.9716 76.4731 59.7686C82.8945 59.1723 89.3288 59.3245 95.7632 59.2865C96.1257 59.2865 96.5529 59.2103 96.4752 59.794C96.3069 59.9589 96.1386 60.1365 95.9574 60.3014C94.2355 61.9 92.5266 63.524 90.7788 65.0972C89.1088 66.5943 87.8918 68.5735 85.7556 69.5631C84.3186 68.8653 82.9333 67.6981 81.4316 67.5712C79.5284 67.3936 78.0396 63.7016 75.9552 66.6451C74.6994 68.4213 74.1686 70.6796 73.3142 72.735C73.0682 72.6842 72.6151 72.6842 72.5892 72.5827C72.1749 70.7938 72.0713 68.9795 71.4628 67.1906C70.8802 65.5286 71.0485 63.6255 70.8285 61.8366C70.8155 61.6844 70.4271 61.5702 70.207 61.4433C70.207 60.8977 70.207 60.3522 70.207 59.8066Z" stroke="black"/>
<path d="M54.5525 88.4813C54.5396 88.6081 54.5267 88.735 54.5137 88.8619C52.8177 88.8873 52.0798 90.4478 50.7981 91.171C47.8075 92.833 45.024 94.863 42.1628 96.7661C40.4927 97.8699 38.8485 98.999 37.1914 100.128C37.3727 97.8064 37.4762 95.4847 37.7352 93.1629C38.0459 90.3717 38.2142 87.5043 38.991 84.8273C39.4311 83.3175 39.1722 81.9219 39.3923 80.4883C40.7517 81.1988 42.0981 81.9346 43.4575 82.6324C44.9851 83.419 46.5517 84.1168 48.0534 84.9415C49.607 85.7916 51.0829 86.7558 52.6235 87.6185C53.232 87.9611 53.9052 88.1895 54.5525 88.4813Z" stroke="black"/>
<path d="M100.488 80.4883C99.6339 81.96 98.7794 83.4444 97.912 84.9161C97.2647 86.0326 96.6692 87.1872 95.9442 88.2529C94.9085 89.8007 93.6915 91.2344 92.7205 92.8076C92.0732 93.8607 91.646 95.0025 90.8174 96.0048C90.0018 96.9817 89.6004 98.2759 88.9402 99.3923C88.8884 99.4938 87.9951 99.3162 87.9692 99.202C87.7232 97.7937 87.529 96.3854 87.4125 94.9518C87.1665 91.9068 87.296 88.7858 86.6228 85.8423C86.1955 83.99 86.4933 82.2391 86.2344 80.4629C90.9986 80.4756 95.737 80.4756 100.488 80.4883Z" stroke="black"/>
<path d="M85.7554 69.5762C87.8915 68.5866 89.1085 66.6073 90.7786 65.1102C92.5263 63.537 94.2353 61.9131 95.9571 60.3145C95.8536 62.1414 94.533 63.4228 93.7562 64.9453C92.9277 66.5566 92.2286 68.2313 91.4129 69.8553C90.5714 71.5554 89.6652 73.2301 88.7848 74.9175C88.1116 76.1989 87.4384 77.4803 86.7652 78.7618C86.6745 78.9394 86.5839 79.1297 86.5062 79.3073C86.4156 79.1043 86.2603 78.9013 86.2603 78.6856C86.2344 76.8714 86.3121 75.0444 86.2214 73.2428C86.1696 72.139 86.8429 70.7942 85.3281 70.0583C85.4705 69.8934 85.6129 69.7284 85.7554 69.5762Z" stroke="black"/>
<path d="M29.1797 60.3145C30.2931 61.2914 31.4324 62.2429 32.494 63.2579C34.177 64.8692 35.7824 66.5566 37.4784 68.1679C38.1257 68.7896 38.4105 70.0329 39.7699 69.5762C39.9123 69.7411 40.0417 69.906 40.1842 70.071C38.4364 72.5196 39.8734 75.2728 39.4074 77.8356C39.3167 78.3177 39.252 78.8125 39.1743 79.3073C38.8636 78.9013 38.5011 78.5207 38.2551 78.0767C36.9475 75.6661 35.4717 73.3189 34.4489 70.7942C33.5685 68.6246 31.9891 66.8484 31.3676 64.5013C30.9922 63.0803 29.2833 62.0526 29.1797 60.3145Z" stroke="black"/>
<path d="M52.8593 72.3798C54.607 71.314 53.4419 69.3982 54.1669 67.9392C54.853 66.5563 54.3222 64.6278 54.9048 63.1434C55.3579 61.9889 55.3968 60.9358 55.4486 59.8066C55.6169 59.9716 55.8887 60.1238 55.9405 60.3268C56.0182 60.6694 55.9535 61.0373 55.9664 61.3926C56.2771 68.3198 56.8986 75.2344 56.6396 82.1744C56.6137 82.8849 57.028 83.5953 57.1057 84.3185C57.1575 84.8387 56.9762 85.3716 56.9115 85.9044C56.6008 85.3462 56.1477 84.826 55.9923 84.2424C55.2026 81.2101 54.5294 78.1652 53.7267 75.1329C53.5195 74.3463 52.9887 73.6485 52.6133 72.8999C52.691 72.7223 52.7686 72.5447 52.8593 72.3798Z" stroke="black"/>
<path d="M73.3124 72.736C73.4419 72.7868 73.5713 72.8375 73.6878 72.8883C71.707 74.8167 72.4838 77.5826 71.5128 79.8536C70.9043 81.3 71.0468 83.0508 70.8267 84.6494C70.8008 84.8651 70.6584 85.0554 70.5807 85.2584C70.4512 85.03 70.2182 84.8016 70.2052 84.5733C70.1405 81.8074 70.3735 79.0162 69.9981 76.3012C69.4543 72.3808 69.8039 68.4731 69.7003 64.5654C69.6744 63.5377 70.011 62.4974 70.1923 61.457C70.4124 61.5839 70.7878 61.6981 70.8137 61.8503C71.0338 63.6392 70.8785 65.5423 71.4481 67.2044C72.0695 68.9933 72.1602 70.8076 72.5745 72.5965C72.6133 72.6853 73.0664 72.6853 73.3124 72.736Z" stroke="black"/>
<path d="M70.3365 86.9701C70.1941 87.0462 70.0517 87.1985 69.9092 87.1985C65.4816 87.2112 61.041 87.1985 56.6133 87.1985C56.7816 87.0336 56.9369 86.7417 57.1052 86.7417C61.3646 86.7164 65.611 86.7163 69.8704 86.729C70.0258 86.7163 70.1811 86.8813 70.3365 86.9701Z" stroke="black"/>
</g>
</svg>
