<svg width="38" height="38" viewBox="0 0 38 38" fill="none" xmlns="http://www.w3.org/2000/svg">
<path fill-rule="evenodd" clip-rule="evenodd" d="M26.1368 0.706417C26.043 0.664149 25.9531 0.606548 25.8548 0.581911C22.2237 -0.327776 18.6368 -0.183803 15.1221 1.10567C13.7549 1.6072 12.4683 2.27879 11.2719 3.13035C10.2365 3.86741 9.28834 4.69193 8.45416 5.634C5.64264 8.80918 4.30455 12.505 4.5523 16.7425C4.71825 19.5803 5.66245 22.1467 7.46048 24.3493C9.55551 26.9155 12.2515 28.5111 15.6178 28.8323C17.835 29.0439 19.951 28.6744 21.8931 27.5428C22.7286 27.056 23.4832 26.4608 24.1531 25.7618C24.3584 25.5475 24.5754 25.3372 24.8172 25.1673C24.9212 25.0941 25.1388 25.0694 25.2375 25.1301C25.3347 25.1899 25.4163 25.4056 25.3835 25.5182C25.275 25.8914 25.1633 26.2806 24.96 26.6068C24.3554 27.5766 23.5773 28.3931 22.6121 29.029C18.914 31.4654 15.0148 31.499 11.0311 29.8932C8.92708 29.0452 7.18259 27.6697 5.71107 25.9352C3.1878 22.9612 2.04821 19.4963 1.97243 15.6713C1.92862 13.4591 2.41191 11.3133 3.22748 9.25466C3.89398 7.57232 4.77312 6.00121 5.95778 4.61641C6.48029 4.00564 7.04359 3.4291 7.58783 2.83649C7.69085 2.72433 7.7912 2.60981 7.89283 2.49633C7.87684 2.47715 7.86085 2.45791 7.84486 2.43867C7.70505 2.55181 7.55266 2.65277 7.42745 2.77998C6.28636 3.93925 5.22268 5.15567 4.36197 6.5453C2.86008 8.96998 1.9467 11.5813 1.70694 14.4173C1.50368 16.8209 1.74362 19.1808 2.54112 21.4653C3.22592 23.4272 4.21323 25.2365 5.60845 26.7929C8.93606 30.505 13.0805 32.3551 18.1253 32.0049C20.7226 31.8245 23.0939 30.9516 25.1208 29.3167C28.2266 26.8115 29.7823 23.5812 29.559 19.5705C29.5404 19.2362 29.5054 18.8997 29.5288 18.5677C29.5388 18.425 29.6577 18.2017 29.7648 18.1772C29.8862 18.1496 30.101 18.2672 30.1864 18.385C30.5694 18.9128 30.6887 19.544 30.7792 20.1677C31.1403 22.654 30.6408 24.9785 29.4034 27.1611C28.2218 29.2452 26.5939 30.9039 24.5219 32.112C20.774 34.2975 16.7677 34.7184 12.5861 33.6921C9.9721 33.0506 7.66709 31.7996 5.6329 30.0569C3.50925 28.2375 1.8993 26.0431 0.788055 23.4895C0.528769 22.8937 0.284374 22.2916 0 21.6991C0.11733 22.0803 0.213628 22.4694 0.355236 22.8414C1.76204 26.5376 4.05986 29.5542 7.3753 31.7714C10.3021 33.7287 13.5409 34.7637 17.0754 34.757C20.83 34.75 24.2202 33.6173 27.1523 31.2615C30.0681 28.9185 31.8267 25.8917 32.3663 22.2108C32.7784 19.4001 32.2553 16.7213 30.8166 14.2696C29.5967 12.1907 27.8657 10.6219 25.5913 9.69934C25.065 9.48587 24.5236 9.3091 23.9895 9.11453C23.8447 9.06175 23.6797 9.03304 23.5628 8.94351C23.4459 8.85403 23.2902 8.68542 23.3104 8.58181C23.3355 8.45277 23.5064 8.29472 23.6445 8.25659C23.8905 8.18871 24.1602 8.17475 24.4182 8.18486C26.0184 8.24746 27.4476 8.819 28.7719 9.67309C31.6422 11.5244 33.3951 14.1563 34.1816 17.4279C34.9747 20.7268 34.6029 23.9339 33.2384 27.0266C32.1088 29.5868 30.3703 31.6938 28.1599 33.4062C26.7315 34.5128 25.1472 35.3602 23.4417 35.998C21.8469 36.5944 20.2095 36.9537 18.5184 37.1048C18.3941 37.1159 18.271 37.1398 18.1475 37.1882C18.3957 37.1882 18.6463 37.2108 18.8916 37.1846C20.7709 36.9837 22.6182 36.6283 24.3653 35.8929C26.5061 34.9917 28.4438 33.7842 30.111 32.1489C31.3715 30.9125 32.4514 29.5552 33.2814 28.0056C35.0035 24.7905 35.6311 21.3804 35.0341 17.7805C34.4019 13.9686 32.5723 10.8333 29.4348 8.51669C26.9687 6.69582 24.1793 5.80377 21.0827 5.98059C19.1229 6.09252 17.2953 6.67871 15.6676 7.74753C13.5454 9.14118 12.1099 11.0602 11.5199 13.5527C11.4585 13.8123 11.3893 14.0784 11.2668 14.312C11.1984 14.4425 11.0135 14.5868 10.8792 14.5887C10.7463 14.5906 10.5236 14.4436 10.4922 14.323C10.3827 13.903 10.2828 13.4664 10.2811 13.0357C10.2763 11.8605 10.6685 10.7754 11.2061 9.74902C12.5859 7.1146 14.7654 5.39768 17.5548 4.40093C21.5608 2.96944 25.4083 3.48493 29.1131 5.39268C31.1889 6.46162 32.9026 7.97323 34.322 9.82304C36.1211 12.1676 37.2246 14.7949 37.6653 17.6991C37.7901 18.5211 37.8634 19.3508 37.9675 20.239C38.0626 19.1512 37.9352 18.1361 37.767 17.1296C37.2847 14.2447 36.1638 11.619 34.3692 9.29796C32.8773 7.36821 31.0475 5.82295 28.8575 4.69428C26.395 3.42514 23.7808 2.78399 21.0196 2.89656C17.8269 3.02669 14.8797 3.9995 12.4406 6.07909C8.7817 9.19867 7.14528 13.1365 8.13885 17.9229C8.72637 20.753 10.3575 22.9032 12.9495 24.2724C13.539 24.5838 14.2073 24.7492 14.8408 24.9779C15.0671 25.0596 15.3173 25.0974 15.5195 25.2169C15.6551 25.297 15.8052 25.4868 15.8028 25.6251C15.8004 25.7654 15.6419 25.9908 15.5109 26.0249C15.0871 26.135 14.6407 26.2501 14.2101 26.2279C12.3607 26.1327 10.7657 25.4092 9.35723 24.2272C7.24412 22.4537 6.05778 20.1738 5.54819 17.5136C4.94885 14.385 5.53226 11.4269 6.99388 8.64372C8.28515 6.18493 10.1691 4.24478 12.5524 2.76809C15.5257 0.925856 18.7656 0.102199 22.2475 0.175077C23.5613 0.202586 24.862 0.392622 26.1411 0.70481L26.1368 0.706417Z" fill="url(#paint0_linear_2421_41964)"/>
<path d="M16 1.42188L16.1885 10.1224C16.2153 11.3623 17.2141 12.3611 18.454 12.388L27.1546 12.5764L18.454 12.7649C17.2141 12.7918 16.2153 13.7905 16.1885 15.0305L16 23.731L15.8115 15.0305C15.7847 13.7905 14.7859 12.7918 13.546 12.7649L4.84544 12.5764L13.546 12.388C14.7859 12.3611 15.7847 11.3623 15.8115 10.1224L16 1.42188Z" fill="#2B2B2B"/>
<defs>
<linearGradient id="paint0_linear_2421_41964" x1="13.9297" y1="70.8928" x2="60.3332" y2="56.6659" gradientUnits="userSpaceOnUse">
<stop stop-color="#F26F56"/>
<stop offset="1" stop-color="#F49756"/>
</linearGradient>
</defs>
</svg>
