<svg viewBox="0 0 22 22" xmlns="http://www.w3.org/2000/svg">
<path d="M13.6719 10.9719L19.7469 4.95313C20.0844 4.61563 20.0844 3.99688 19.7469 3.65938L18.3406 2.25313C18.0031 1.91562 17.3844 1.91562 17.0469 2.25313L11.0281 8.32813L4.95313 2.25313C4.61563 1.91562 3.99688 1.91562 3.65938 2.25313L2.25313 3.65938C1.91562 3.99688 1.91562 4.61563 2.25313 4.95313L8.32813 10.9719L2.25313 17.0469C1.91562 17.3844 1.91562 18.0031 2.25313 18.3406L3.65938 19.7469C3.99688 20.0844 4.61563 20.0844 4.95313 19.7469L11.0281 13.6719L17.0469 19.7469C17.3844 20.0844 18.0031 20.0844 18.3406 19.7469L19.7469 18.3406C20.0844 18.0031 20.0844 17.3844 19.7469 17.0469L13.6719 10.9719Z" fill="currentColor"/>
</svg>
