<?xml version="1.0" standalone="no"?>
<!DOCTYPE svg PUBLIC "-//W3C//DTD SVG 20010904//EN"
 "http://www.w3.org/TR/2001/REC-SVG-20010904/DTD/svg10.dtd">
<svg version="1.0" xmlns="http://www.w3.org/2000/svg"
 width="512.000000pt" height="512.000000pt" viewBox="0 0 512.000000 512.000000"
 preserveAspectRatio="xMidYMid meet">
<metadata>
Created by potrace 1.14, written by Peter Selinger 2001-2017
</metadata>
<g transform="translate(0.000000,512.000000) scale(0.100000,-0.100000)"
fill="#000000" stroke="none">
<path d="M325 5106 c-150 -48 -263 -157 -305 -295 -20 -65 -20 -88 -18 -2271
l3 -2205 32 -67 c18 -38 45 -84 60 -105 44 -57 138 -121 212 -143 65 -20 88
-20 2271 -18 l2205 3 67 32 c38 18 84 45 105 60 57 44 121 138 143 212 20 65
20 88 18 2271 l-3 2205 -32 67 c-18 38 -45 84 -60 105 -43 56 -137 120 -210
143 -64 20 -89 20 -2257 19 -1740 0 -2199 -3 -2231 -13z m3234 -907 c286 -254
481 -590 561 -964 30 -139 38 -413 16 -545 -47 -290 -183 -562 -386 -773 -144
-151 -288 -243 -476 -306 -310 -104 -606 -77 -865 80 -102 62 -134 69 -172 39
-23 -18 -27 -29 -27 -68 0 -182 258 -394 555 -458 113 -24 397 -24 519 0 423
83 807 358 1059 758 66 106 75 106 14 1 -149 -258 -383 -503 -612 -643 -248
-152 -572 -250 -823 -250 -286 0 -559 78 -779 222 -281 184 -446 431 -498 747
-29 171 -6 307 81 491 50 104 57 144 31 183 -52 80 -227 16 -344 -125 -213
-256 -232 -717 -47 -1092 177 -357 489 -631 899 -787 120 -46 112 -50 -17 -9
-426 140 -816 473 -998 856 -141 294 -182 650 -109 939 83 325 305 608 584
745 210 103 400 129 618 84 38 -8 82 -14 98 -14 42 0 69 31 69 81 0 36 -7 48
-56 99 -63 66 -150 116 -264 152 -67 20 -93 23 -245 22 -139 -1 -184 -5 -245
-21 -195 -54 -350 -135 -509 -268 -341 -286 -530 -697 -549 -1195 -6 -173 -6
-174 -14 -85 -9 106 5 336 28 455 46 246 164 507 319 705 227 291 517 479 865
562 145 34 386 43 515 19 426 -80 745 -346 870 -724 40 -121 95 -155 149 -92
33 40 41 83 40 205 -1 114 -18 189 -70 302 -220 484 -826 782 -1449 713 -217
-24 -448 -93 -650 -195 -69 -34 -125 -61 -125 -60 0 2 42 28 92 58 179 106
363 177 583 224 121 25 147 27 365 27 208 0 247 -2 340 -22 315 -69 568 -203
795 -423 221 -214 342 -437 391 -719 25 -146 16 -375 -20 -495 -51 -169 -134
-307 -272 -455 -83 -89 -97 -121 -66 -152 33 -34 105 -35 177 -3 159 70 272
166 365 311 285 446 254 1058 -78 1559 -90 134 -235 294 -382 419 l-45 38 48
-33 c27 -18 92 -72 146 -120z m-2912 -2251 c-3 -8 -6 -5 -6 6 -1 11 2 17 5 13
3 -3 4 -12 1 -19z"/>
</g>
</svg>
