<svg width="270" height="38" viewBox="0 0 270 38" fill="none" xmlns="http://www.w3.org/2000/svg">
<path fill-rule="evenodd" clip-rule="evenodd" d="M26.8946 1.20251C26.8008 1.16024 26.7109 1.10264 26.6126 1.078C22.9815 0.168316 19.3946 0.31229 15.8799 1.60176C14.5128 2.10329 13.2261 2.77488 12.0298 3.62645C10.9943 4.3635 10.0462 5.18802 9.21198 6.1301C6.40045 9.30527 5.06236 13.0011 5.31012 17.2386C5.47606 20.0764 6.42027 22.6428 8.21829 24.8454C10.3133 27.4116 13.0093 29.0072 16.3756 29.3284C18.5928 29.54 20.7089 29.1705 22.6509 28.0389C23.4864 27.5521 24.241 26.9569 24.9109 26.2579C25.1162 26.0436 25.3332 25.8333 25.575 25.6634C25.679 25.5902 25.8966 25.5655 25.9953 25.6262C26.0926 25.686 26.1741 25.9017 26.1413 26.0143C26.0328 26.3875 25.9211 26.7767 25.7178 27.1029C25.1132 28.0727 24.3351 28.8892 23.3699 29.5251C19.6718 31.9615 15.7726 31.9951 11.7889 30.3893C9.68489 29.5413 7.9404 28.1658 6.46888 26.4313C3.94561 23.4573 2.80603 19.9924 2.73024 16.1674C2.68643 13.9552 3.16972 11.8094 3.9853 9.75076C4.65179 8.06841 5.53093 6.4973 6.71559 5.1125C7.2381 4.50174 7.8014 3.9252 8.34564 3.33258C8.44866 3.22042 8.54902 3.1059 8.65064 2.99242C8.63465 2.97324 8.61866 2.95401 8.60267 2.93476C8.46286 3.0479 8.31047 3.14886 8.18526 3.27607C7.04417 4.43534 5.98049 5.65177 5.11978 7.04139C3.61789 9.46608 2.70451 12.0774 2.46475 14.9134C2.2615 17.317 2.50143 19.6769 3.29893 21.9614C3.98373 23.9233 4.97105 25.7326 6.36626 27.289C9.69387 31.0011 13.8383 32.8512 18.8831 32.501C21.4805 32.3206 23.8517 31.4477 25.8786 29.8127C28.9844 27.3075 30.5401 24.0773 30.3168 20.0666C30.2982 19.7323 30.2633 19.3958 30.2866 19.0638C30.2966 18.9211 30.4155 18.6978 30.5226 18.6733C30.644 18.6456 30.8588 18.7633 30.9442 18.8811C31.3272 19.4089 31.4465 20.0401 31.537 20.6638C31.8981 23.1501 31.3986 25.4746 30.1612 27.6572C28.9796 29.7413 27.3517 31.4 25.2798 32.6081C21.5318 34.7936 17.5255 35.2145 13.3439 34.1882C10.7299 33.5467 8.42491 32.2957 6.39072 30.553C4.26706 28.7336 2.65712 26.5392 1.54587 23.9856C1.28658 23.3898 1.04219 22.7877 0.757812 22.1952C0.875143 22.5764 0.971441 22.9655 1.11305 23.3375C2.51985 27.0337 4.81768 30.0503 8.13312 32.2675C11.0599 34.2248 14.2987 35.2598 17.8332 35.2531C21.5878 35.2461 24.978 34.1134 27.9101 31.7575C30.8259 29.4146 32.5845 26.3878 33.1241 22.7069C33.5362 19.8962 33.0131 17.2174 31.5744 14.7657C30.3545 12.6868 28.6235 11.118 26.3491 10.1954C25.8228 9.98197 25.2814 9.8052 24.7473 9.61063C24.6025 9.55785 24.4375 9.52913 24.3206 9.4396C24.2037 9.35013 24.048 9.18151 24.0682 9.07791C24.0934 8.94886 24.2642 8.79082 24.4023 8.75269C24.6483 8.6848 24.918 8.67085 25.176 8.68095C26.7762 8.74355 28.2054 9.31509 29.5297 10.1692C32.4 12.0205 34.1529 14.6524 34.9394 17.924C35.7325 21.2229 35.3607 24.43 33.9962 27.5227C32.8667 30.0829 31.1281 32.1899 28.9178 33.9023C27.4893 35.0089 25.9051 35.8562 24.1995 36.4941C22.6047 37.0905 20.9673 37.4498 19.2763 37.6008C19.1519 37.612 19.0288 37.6359 18.9053 37.6843C19.1535 37.6843 19.4041 37.7069 19.6495 37.6807C21.5287 37.4798 23.376 37.1244 25.1231 36.389C27.2639 35.4878 29.2016 34.2803 30.8688 32.6449C32.1294 31.4085 33.2092 30.0512 34.0392 28.5017C35.7613 25.2866 36.3889 21.8765 35.7919 18.2765C35.1597 14.4646 33.3301 11.3294 30.1926 9.01278C27.7265 7.19192 24.9371 6.29986 21.8406 6.47669C19.8807 6.58862 18.0531 7.1748 16.4254 8.24363C14.3032 9.63727 12.8678 11.5563 12.2777 14.0488C12.2163 14.3084 12.1472 14.5745 12.0246 14.8081C11.9562 14.9386 11.7713 15.0829 11.637 15.0848C11.5041 15.0867 11.2815 14.9397 11.25 14.8191C11.1405 14.3991 11.0407 13.9625 11.0389 13.5318C11.0342 12.3566 11.4263 11.2715 11.9639 10.2451C13.3437 7.61069 15.5233 5.89377 18.3126 4.89702C22.3186 3.46553 26.1661 3.98102 29.8709 5.88878C31.9467 6.95772 33.6604 8.46933 35.0798 10.3191C36.8789 12.6637 37.9824 15.291 38.4231 18.1952C38.5479 19.0172 38.6212 19.8468 38.7253 20.7351C38.8204 19.6473 38.693 18.6322 38.5248 17.6257C38.0425 14.7408 36.9217 12.1151 35.1271 9.79406C33.6351 7.8643 31.8054 6.31904 29.6154 5.19038C27.1528 3.92123 24.5386 3.28009 21.7774 3.39265C18.5847 3.52279 15.6375 4.49559 13.1984 6.57518C9.53952 9.69476 7.90309 13.6326 8.89666 18.419C9.48418 21.2491 11.1153 23.3993 13.7073 24.7685C14.2968 25.0799 14.9651 25.2453 15.5986 25.474C15.825 25.5557 16.0751 25.5935 16.2773 25.713C16.4129 25.7931 16.5631 25.9829 16.5606 26.1212C16.5583 26.2615 16.3997 26.4869 16.2687 26.521C15.8449 26.6311 15.3985 26.7462 14.9679 26.724C13.1185 26.6288 11.5235 25.9053 10.115 24.7233C8.00194 22.9498 6.8156 20.6699 6.30601 18.0097C5.70667 14.8811 6.29007 11.923 7.75169 9.13982C9.04296 6.68102 10.9269 4.74087 13.3103 3.26418C16.2836 1.42195 19.5234 0.598293 23.0053 0.671169C24.3192 0.698681 25.6198 0.888718 26.8989 1.2009L26.8946 1.20251Z" fill="url(#paint0_linear_1102_30780)"/>
<path d="M50.7578 12.0508C50.7578 8.98514 53.3443 7.49609 58.7162 7.49609H68.2164C73.5386 7.49609 76.1748 8.97638 76.1748 12.0508V15.7735H64.8341V11.1114C64.8022 10.9064 64.6355 10.716 64.3678 10.5786C64.1001 10.4412 63.7512 10.3671 63.3917 10.3713C63.0505 10.3747 62.725 10.4537 62.4837 10.5918C62.2425 10.7299 62.1043 10.9162 62.0984 11.1114V27.8523C62.0943 28.052 62.2277 28.2445 62.4697 28.3884C62.7117 28.5322 63.0429 28.6157 63.3917 28.6209C63.7587 28.6235 64.1133 28.5451 64.3819 28.402C64.6506 28.2589 64.8125 28.062 64.8341 27.8523V22.2705H63.3419V19.5662H76.1748V31.3538H70.1563L69.3107 29.6742C68.0672 30.8698 65.7792 31.4961 62.3969 31.4961H58.7162C53.3596 31.4961 50.7578 29.9873 50.7578 26.9413V12.0508Z" fill="#2B2B2B"/>
<path fill-rule="evenodd" clip-rule="evenodd" d="M100.846 7.63843L105.621 31.3538H94.1808L93.2358 25.9735H88.8587L87.7109 31.3538H77.4683L82.8899 7.63843H100.846ZM92.7384 22.899L91.3954 11.1684L89.2566 22.899H92.7384Z" fill="#2B2B2B"/>
<path d="M118.25 28.0034V7.63843H106.91V31.3625H123.879V28.0034H118.25Z" fill="#2B2B2B"/>
<path fill-rule="evenodd" clip-rule="evenodd" d="M148.496 7.63843L153.271 31.3538H141.831L140.886 25.9735H136.505L135.357 31.3538H125.115L130.537 7.63843H148.496ZM140.385 22.899L139.042 11.1684L136.888 22.899H140.385Z" fill="#2B2B2B"/>
<path d="M171.621 31.4961C176.943 31.4961 179.579 29.9873 179.579 26.9413V22.0428H168.239V27.8523C168.217 28.062 168.055 28.2589 167.787 28.402C167.518 28.5451 167.163 28.6235 166.796 28.6209C166.448 28.6157 166.116 28.5322 165.874 28.3884C165.632 28.2445 165.499 28.052 165.503 27.8523V11.1114C165.509 10.9162 165.647 10.7299 165.888 10.5918C166.13 10.4537 166.455 10.3747 166.796 10.3713C167.156 10.3671 167.505 10.4412 167.772 10.5786C168.04 10.716 168.207 10.9064 168.239 11.1114V15.7735H179.599V12.0508C179.599 8.97638 176.962 7.49609 171.64 7.49609H162.14C156.768 7.49609 154.182 8.98514 154.182 12.0508V26.9413C154.182 29.9873 156.783 31.4961 162.14 31.4961H171.621Z" fill="#2B2B2B"/>
<path d="M200.072 7.63843V11.0611H196.093V31.3603H184.752V11.0611H180.773V7.645L200.072 7.63843Z" fill="#2B2B2B"/>
<path d="M202.261 31.3538H213.601V7.63843H202.261V31.3538Z" fill="#2B2B2B"/>
<path d="M241.724 26.9413C241.724 29.9873 239.087 31.4961 233.765 31.4961H224.246C218.889 31.4961 216.287 29.9873 216.287 26.9413V12.0508C216.287 8.98514 218.874 7.49609 224.246 7.49609H233.746C239.068 7.49609 241.704 8.97638 241.704 12.0508V15.7735H230.364V11.1114C230.332 10.9064 230.165 10.716 229.897 10.5786C229.63 10.4412 229.281 10.3671 228.921 10.3713C228.58 10.3747 228.255 10.4537 228.013 10.5918C227.772 10.7299 227.634 10.9162 227.628 11.1114V27.8523C227.624 28.052 227.757 28.2445 227.999 28.3884C228.241 28.5322 228.573 28.6157 228.921 28.6209C229.288 28.6235 229.643 28.5451 229.912 28.402C230.18 28.2589 230.342 28.062 230.364 27.8523V22.0428H241.724V26.9413Z" fill="#2B2B2B"/>
<path fill-rule="evenodd" clip-rule="evenodd" d="M269.758 31.3538L264.983 7.63843H247.027L241.605 31.3538H251.848L252.996 25.9735H257.373L258.318 31.3538H269.758ZM255.532 11.1684L256.875 22.899H253.393L255.532 11.1684Z" fill="#2B2B2B"/>
<path d="M16.7578 1.91797L16.9463 10.6185C16.9731 11.8584 17.9719 12.8572 19.2118 12.8841L27.9124 13.0725L19.2118 13.261C17.9719 13.2879 16.9731 14.2866 16.9463 15.5266L16.7578 24.2271L16.5693 15.5266C16.5425 14.2866 15.5437 13.2879 14.3038 13.261L5.60325 13.0725L14.3038 12.8841C15.5437 12.8572 16.5425 11.8584 16.5693 10.6185L16.7578 1.91797Z" fill="#2B2B2B"/>
<defs>
<linearGradient id="paint0_linear_1102_30780" x1="14.6875" y1="71.3889" x2="61.091" y2="57.162" gradientUnits="userSpaceOnUse">
<stop stop-color="#F26F56"/>
<stop offset="1" stop-color="#F49756"/>
</linearGradient>
</defs>
</svg>
