<svg width="21" height="15" viewBox="0 0 21 15" fill="none" xmlns="http://www.w3.org/2000/svg">
<path d="M17.8477 1.28632C16.5702 0.731539 15.2008 0.32148 13.7688 0.0883095C13.7561 0.085952 13.7429 0.0874713 13.731 0.0926572C13.7192 0.0978432 13.7094 0.106439 13.7028 0.117255C13.5275 0.413944 13.3321 0.800686 13.1952 1.10622C11.6764 0.887713 10.1323 0.887713 8.61357 1.10622C8.46105 0.767609 8.28905 0.437442 8.09838 0.117255C8.09192 0.106306 8.08214 0.0975156 8.07035 0.0920565C8.05857 0.0865973 8.04533 0.0847292 8.03242 0.0867014C6.60124 0.319872 5.23185 0.729931 3.95348 1.28552C3.94248 1.28996 3.93316 1.29754 3.92676 1.30723C1.32826 4.9857 0.616016 8.57331 0.965878 12.1159C0.966852 12.1246 0.969648 12.133 0.974098 12.1406C0.978548 12.1482 0.984558 12.1548 0.991763 12.1601C2.50844 13.2234 4.20008 14.0334 5.99587 14.5561C6.00839 14.5599 6.02178 14.5598 6.03429 14.5561C6.0468 14.5524 6.05786 14.5451 6.06601 14.5352C6.45244 14.0376 6.79487 13.5096 7.08971 12.9569C7.0938 12.9494 7.09616 12.941 7.09662 12.9325C7.09709 12.924 7.09565 12.9155 7.0924 12.9076C7.08916 12.8997 7.08418 12.8925 7.07781 12.8866C7.07144 12.8807 7.06382 12.8761 7.05547 12.8733C6.51607 12.6777 5.99344 12.4417 5.49237 12.1674C5.48337 12.1624 5.47578 12.1554 5.47029 12.1469C5.4648 12.1384 5.46158 12.1288 5.46092 12.1188C5.46026 12.1089 5.46217 12.0989 5.4665 12.0898C5.47082 12.0808 5.47742 12.0729 5.48569 12.0668C5.5909 11.9921 5.69611 11.9141 5.79631 11.8361C5.80533 11.8291 5.81619 11.8246 5.82769 11.8232C5.83919 11.8218 5.85087 11.8235 5.86144 11.8281C9.14045 13.2464 12.6917 13.2464 15.9323 11.8281C15.9429 11.8232 15.9547 11.8213 15.9663 11.8226C15.978 11.8238 15.9891 11.8282 15.9982 11.8353C16.0984 11.9141 16.2028 11.9921 16.3089 12.0668C16.3172 12.0727 16.3239 12.0805 16.3284 12.0895C16.3328 12.0985 16.3349 12.1084 16.3344 12.1184C16.3339 12.1284 16.3309 12.138 16.3255 12.1466C16.3202 12.1551 16.3127 12.1623 16.3038 12.1674C15.8045 12.4439 15.2852 12.6779 14.7399 12.8725C14.7315 12.8754 14.7239 12.88 14.7175 12.886C14.7112 12.892 14.7062 12.8993 14.7029 12.9072C14.6997 12.9152 14.6983 12.9238 14.6987 12.9324C14.6992 12.9409 14.7016 12.9493 14.7057 12.9569C15.0063 13.5093 15.3503 14.0351 15.7285 14.5344C15.7364 14.5447 15.7474 14.5523 15.7599 14.5564C15.7725 14.5604 15.786 14.5606 15.7987 14.557C17.5975 14.0356 19.292 13.2253 20.8103 12.1601C20.8177 12.1551 20.8239 12.1487 20.8285 12.1412C20.8331 12.1337 20.836 12.1254 20.837 12.1167C21.2545 8.02094 20.1373 4.46227 17.8736 1.30884C17.8681 1.29859 17.8589 1.2906 17.8477 1.28632ZM7.57985 9.95867C6.59289 9.95867 5.77877 9.09915 5.77877 8.04506C5.77877 6.99016 6.57702 6.13145 7.57985 6.13145C8.59019 6.13145 9.39679 6.9974 9.38093 8.04506C9.38093 9.09995 8.58268 9.95867 7.57985 9.95867ZM14.2389 9.95867C13.2511 9.95867 12.4378 9.09915 12.4378 8.04506C12.4378 6.99016 13.2353 6.13145 14.2389 6.13145C15.2493 6.13145 16.0559 6.9974 16.04 8.04506C16.04 9.09995 15.2501 9.95867 14.2389 9.95867Z" fill="#91908E"/>
</svg>
