<svg width="20" height="15" viewBox="0 0 20 15" fill="none" xmlns="http://www.w3.org/2000/svg">
<path d="M19.0987 2.21893H19.8486V0.0859375H12.7566L10.3998 8.46534H10.3354L7.99997 0.0859375H0.886719V2.21887H1.61521C1.78361 2.2453 1.93986 2.32002 2.06359 2.43331C2.18732 2.54659 2.27279 2.69317 2.30886 2.85397V11.8401C2.27056 11.9951 2.18323 12.1348 2.05896 12.2399C1.93469 12.3449 1.77962 12.4102 1.61521 12.4266H0.886719V14.5596H6.57528V12.4266H5.15314V2.98067H5.23612L8.51423 14.5596H11.0855L14.4064 2.98067H14.4762V12.4266H13.054V14.5596H19.8486V12.4266H19.0987C18.938 12.4064 18.7876 12.3394 18.6675 12.2346C18.5473 12.1298 18.4633 11.9922 18.4265 11.8401V2.85402C18.4613 2.69615 18.5437 2.55168 18.6632 2.43872C18.7828 2.32575 18.9343 2.2493 19.0987 2.21893Z" fill="#91908E"/>
</svg>
