<svg width="20" height="15" viewBox="0 0 20 15" fill="none" xmlns="http://www.w3.org/2000/svg">
<path d="M19.8838 1.80031C19.1705 2.09257 18.4161 2.28681 17.6439 2.37706C18.4577 1.92346 19.0662 1.20518 19.3539 0.358322C18.5921 0.782757 17.7586 1.08168 16.8895 1.24218C16.3565 0.707218 15.6645 0.335272 14.9035 0.174698C14.1424 0.0141231 13.3476 0.0723492 12.6222 0.341805C11.8969 0.611261 11.2746 1.07948 10.8363 1.68559C10.398 2.2917 10.164 3.00765 10.1647 3.74037C10.1617 4.01997 10.1919 4.29902 10.2548 4.57232C8.70827 4.5011 7.19519 4.12407 5.81444 3.46589C4.4337 2.80771 3.21637 1.88319 2.24205 0.752774C1.74183 1.55608 1.58681 2.50843 1.80865 3.41544C2.03048 4.32246 2.61244 5.11576 3.43574 5.63342C2.82066 5.6178 2.21859 5.46354 1.68025 5.18362V5.22341C1.68126 6.06669 1.99151 6.8839 2.55878 7.53747C3.12605 8.19104 3.9157 8.64108 4.7948 8.81182C4.46223 8.89417 4.11948 8.93462 3.77555 8.93209C3.52859 8.93619 3.28189 8.91527 3.0397 8.8697C3.29095 9.59443 3.77515 10.2282 4.42567 10.6838C5.07619 11.1393 5.86103 11.3942 6.67216 11.4135C5.29616 12.4243 3.59917 12.9727 1.85237 12.971C1.54138 12.9729 1.23058 12.9561 0.921875 12.9207C2.6994 13.9967 4.77069 14.5659 6.88529 14.5595C14.0385 14.5595 17.9496 8.99322 17.9496 4.16828C17.9496 4.00678 17.9436 3.85106 17.9353 3.69624C18.7021 3.18078 19.3624 2.53829 19.8838 1.80031Z" fill="#91908E"/>
</svg>
