<svg width="15" height="16" viewBox="0 0 15 16" fill="none" xmlns="http://www.w3.org/2000/svg">
<path d="M14.7734 8.0957C14.7734 7.45117 14.2461 6.92383 13.6016 6.92383C12.9277 6.92383 12.4297 7.45117 12.4297 8.0957C12.4297 8.76953 12.9277 9.26758 13.6016 9.26758C14.2461 9.26758 14.7734 8.76953 14.7734 8.0957Z" fill="#2B2B2B"/>
<path opacity="0.1" d="M7.50781 0.830078C8.15234 0.830078 8.67969 1.35742 8.67969 2.00195C8.67969 2.67578 8.15234 3.17383 7.50781 3.17383C6.83398 3.17383 6.33594 2.67578 6.33594 2.00195C6.33594 1.35742 6.83398 0.830078 7.50781 0.830078Z" fill="#2B2B2B"/>
<path opacity="0.15" d="M3.19922 2.61719C3.84375 2.61719 4.37109 3.14453 4.37109 3.78906C4.37109 4.46289 3.84375 4.96094 3.19922 4.96094C2.52539 4.96094 2.02734 4.46289 2.02734 3.78906C2.02734 3.14453 2.52539 2.61719 3.19922 2.61719Z" fill="#2B2B2B"/>
<path opacity="0.25" d="M1.41406 6.92383C2.05859 6.92383 2.58594 7.45117 2.58594 8.0957C2.58594 8.76953 2.05859 9.26758 1.41406 9.26758C0.740234 9.26758 0.242188 8.76953 0.242188 8.0957C0.242188 7.45117 0.740234 6.92383 1.41406 6.92383Z" fill="#2B2B2B"/>
<path opacity="0.4" d="M3.19922 11.2305C3.84375 11.2305 4.37109 11.7578 4.37109 12.4023C4.37109 13.0762 3.84375 13.5742 3.19922 13.5742C2.52539 13.5742 2.02734 13.0762 2.02734 12.4023C2.02734 11.7578 2.52539 11.2305 3.19922 11.2305Z" fill="#2B2B2B"/>
<path opacity="0.6" d="M7.50781 13.0176C8.15234 13.0176 8.67969 13.5449 8.67969 14.1895C8.67969 14.8633 8.15234 15.3613 7.50781 15.3613C6.83398 15.3613 6.33594 14.8633 6.33594 14.1895C6.33594 13.5449 6.83398 13.0176 7.50781 13.0176Z" fill="#2B2B2B"/>
<path opacity="0.8" d="M11.8164 11.2305C12.4609 11.2305 12.9883 11.7578 12.9883 12.4023C12.9883 13.0762 12.4609 13.5742 11.8164 13.5742C11.1426 13.5742 10.6445 13.0762 10.6445 12.4023C10.6445 11.7578 11.1426 11.2305 11.8164 11.2305Z" fill="#2B2B2B"/>
</svg>
