<svg width="16" height="16" viewBox="0 0 16 16" fill="none" xmlns="http://www.w3.org/2000/svg">
<g clip-path="url(#clip0_4186_48247)">
<path fill-rule="evenodd" clip-rule="evenodd" d="M3.66651 1.51473C4.94918 0.657677 6.45719 0.200216 7.99985 0.200195C10.0679 0.202461 12.0505 1.02498 13.5129 2.4873C14.9752 3.94964 15.7977 5.93235 15.8 8.00041C15.7999 9.54303 15.3425 11.051 14.4854 12.3336C13.6283 13.6163 12.4101 14.6161 10.9849 15.2065C9.55962 15.7968 7.9913 15.9513 6.47825 15.6503C4.9652 15.3494 3.57537 14.6065 2.48452 13.5156C1.39367 12.4248 0.650794 11.035 0.349829 9.5219C0.0488648 8.00885 0.203331 6.44053 0.793694 5.01526C1.38406 3.59 2.3838 2.37181 3.66651 1.51473ZM14.8666 8.00041V8.0002C14.8666 6.6421 14.4639 5.3145 13.7094 4.18528C12.9549 3.05606 11.8824 2.17594 10.6277 1.65622C9.373 1.1365 7.99234 1.00052 6.66034 1.26547C5.32833 1.53042 4.10481 2.18441 3.14449 3.14473C2.18417 4.10505 1.53018 5.32857 1.26523 6.66057C1.00028 7.99258 1.13626 9.37324 1.65598 10.628C2.1757 11.8827 3.05582 12.9551 4.18504 13.7096C5.31426 14.4641 6.64186 14.8669 7.99995 14.8669V14.6669L8.00017 14.8669C9.82066 14.8649 11.566 14.1408 12.8533 12.8535C14.1406 11.5662 14.8646 9.8209 14.8666 8.00041Z" fill="#F31C0E"/>
<path fill-rule="evenodd" clip-rule="evenodd" d="M7.66964 3.66989C7.75716 3.58237 7.87586 3.5332 7.99963 3.5332C8.12339 3.5332 8.24209 3.58237 8.32961 3.66989C8.41713 3.7574 8.46629 3.8761 8.46629 3.99987V9.3332C8.46629 9.45697 8.41713 9.57567 8.32961 9.66319C8.24209 9.7507 8.12339 9.79987 7.99963 9.79987C7.87586 9.79987 7.75716 9.7507 7.66964 9.66319C7.58213 9.57567 7.53296 9.45697 7.53296 9.3332V3.99987C7.53296 3.8761 7.58213 3.7574 7.66964 3.66989Z" fill="#F31C0E"/>
<path fill-rule="evenodd" clip-rule="evenodd" d="M7.99977 11.4331C8.31273 11.4331 8.56644 11.6868 8.56644 11.9998C8.56644 12.3127 8.31273 12.5664 7.99977 12.5664C7.68681 12.5664 7.43311 12.3127 7.43311 11.9998C7.43311 11.6868 7.68681 11.4331 7.99977 11.4331Z" fill="#F31C0E"/>
</g>
<defs>
<clipPath id="clip0_4186_48247">
<rect width="16" height="16" fill="white"/>
</clipPath>
</defs>
</svg>
