<svg width="14" height="14" viewBox="0 0 14 14" fill="none" xmlns="http://www.w3.org/2000/svg">
<path d="M13.2832 0.439453L9.14453 0.464844C8.94141 0.464844 8.78906 0.617188 8.78906 0.820312V1.6582C8.78906 1.86133 8.94141 2.03906 9.14453 2.03906L11.0234 1.96289L11.0742 2.01367L3.99023 9.09766C3.93945 9.14844 3.88867 9.25 3.88867 9.30078C3.88867 9.37695 3.93945 9.47852 3.99023 9.5293L4.57422 10.1133C4.625 10.1641 4.72656 10.2148 4.80273 10.2148C4.85352 10.2148 4.95508 10.1641 5.00586 10.1133L12.0898 3.0293L12.1406 3.08008L12.0645 4.95898C12.0645 5.16211 12.2422 5.31445 12.4453 5.31445H13.2832C13.4863 5.31445 13.6387 5.16211 13.6387 4.95898L13.6641 0.820312C13.6641 0.617188 13.4863 0.439453 13.2832 0.439453ZM11.6328 7.75195H11.2266C10.998 7.75195 10.8203 7.95508 10.8203 8.1582V12.0684C10.8203 12.1699 10.7441 12.2207 10.668 12.2207H2.03516C1.93359 12.2207 1.88281 12.1699 1.88281 12.0684V3.43555C1.88281 3.35938 1.93359 3.2832 2.03516 3.2832H5.94531C6.14844 3.2832 6.35156 3.10547 6.35156 2.87695V2.4707C6.35156 2.26758 6.14844 2.06445 5.94531 2.06445H1.88281C1.19727 2.06445 0.664062 2.62305 0.664062 3.2832V12.2207C0.664062 12.9062 1.19727 13.4395 1.88281 13.4395H10.8203C11.4805 13.4395 12.0391 12.9062 12.0391 12.2207V8.1582C12.0391 7.95508 11.8359 7.75195 11.6328 7.75195Z" fill="#F49756"/>
</svg>
