<svg width="21" height="17" viewBox="0 0 21 17" fill="none" xmlns="http://www.w3.org/2000/svg">
<path d="M6.85938 7.2832C6.85938 6.93164 7.13281 6.6582 7.48438 6.6582H13.1094V2.98633C13.1094 2.71289 13.4219 2.55664 13.6172 2.75195L19.1641 8.33789C19.3984 8.57227 19.3984 8.96289 19.1641 9.23633L13.6172 14.8223C13.4219 15.0176 13.1094 14.8613 13.1094 14.5879V10.916H7.48438C7.13281 10.916 6.85938 10.6426 6.85938 10.291V7.2832ZM5.60938 7.2832V10.291C5.60938 11.3457 6.42969 12.166 7.48438 12.166H11.8594V14.5879C11.8594 15.9941 13.5391 16.6973 14.5156 15.6816L20.0234 10.0957C20.7656 9.39258 20.7656 8.18164 20.0234 7.43945L14.5156 1.85352C13.5391 0.876953 11.8594 1.58008 11.8594 2.98633V5.4082H7.48438C6.42969 5.4082 5.60938 6.22852 5.60938 7.2832ZM0.609375 3.14258V14.3926C0.609375 15.4473 1.42969 16.2676 2.48438 16.2676H7.64062C7.875 16.2676 8.10938 16.0723 8.10938 15.7988V15.4863C8.10938 15.252 7.875 15.0176 7.64062 15.0176H2.48438C2.13281 15.0176 1.85938 14.7441 1.85938 14.3926V3.14258C1.85938 2.83008 2.13281 2.51758 2.48438 2.51758H7.64062C7.875 2.51758 8.10938 2.32227 8.10938 2.04883V1.73633C8.10938 1.50195 7.875 1.26758 7.64062 1.26758H2.48438C1.42969 1.26758 0.609375 2.12695 0.609375 3.14258Z" fill="#F58958"/>
</svg>
