<svg width="123" height="110" viewBox="0 0 123 110" fill="none" xmlns="http://www.w3.org/2000/svg">
<path d="M113.297 56.2533C114.695 60.4908 116.249 64.665 117.44 68.9786C118.618 73.2416 120.444 77.3269 121.971 81.501C122.036 81.6913 121.971 81.9197 121.971 82.1354C119.628 81.9704 117.272 81.8182 114.928 81.6152C113.09 81.4502 111.213 81.3487 109.426 81.2853C106.254 81.1711 103.16 80.4099 99.9883 80.486C95.2499 80.486 90.4985 80.486 85.7602 80.4733C83.5981 81.2599 81.7597 82.5794 79.8825 83.8481C77.4097 85.5102 74.8334 87.0326 72.2959 88.6059C71.4803 88.0603 70.6646 87.5148 69.849 86.9565C69.6937 86.8677 69.5383 86.7028 69.3829 86.7028C65.1236 86.6901 60.8771 86.6901 56.6178 86.7155C56.4495 86.7155 56.2941 87.02 56.1258 87.1722C55.4397 87.6036 54.7535 88.0223 54.0803 88.4536C53.433 88.1745 52.7597 87.9334 52.1513 87.5909C50.6106 86.7155 49.1348 85.7512 47.5812 84.9139C46.0794 84.0892 44.5129 83.3787 42.9852 82.6048C41.6258 81.907 40.2794 81.1838 38.92 80.4606C34.0004 80.4606 29.0937 80.4606 24.1741 80.4733C23.6951 80.6763 23.2419 81.0189 22.737 81.0823C20.0701 81.4122 17.4031 81.0823 14.6714 81.4756C10.1661 82.1354 5.55714 81.9577 1 82.1227C1.66027 80.0673 2.30759 77.9993 2.96785 75.944C3.80937 73.3304 4.5991 70.7041 5.53124 68.1286C6.67053 64.9695 7.92633 61.8611 9.1174 58.7146C9.46695 57.7885 9.73883 56.8369 10.0366 55.8981C10.3344 55.8727 10.6451 55.8727 10.9299 55.8092C14.1924 54.9973 17.4549 54.1726 20.7044 53.3352C22.9053 52.7643 25.1062 52.1934 27.2942 51.559C29.5857 50.8866 31.8384 50.138 34.1169 49.4275C34.7513 50.5567 33.7674 51.0388 33.2107 51.7366C32.2267 52.98 31.1392 54.1853 30.4401 55.5682C29.7669 56.8877 28.1227 57.6108 28.1616 59.3109C28.3299 59.6535 28.5111 59.9834 28.6794 60.3259C28.783 62.0641 30.5049 63.0917 30.8803 64.5254C31.5017 66.8726 33.0812 68.6488 33.9616 70.8183C34.9843 73.3431 36.4602 75.6902 37.7678 78.1008C38.0138 78.5448 38.3763 78.9255 38.687 79.3315C38.7647 78.8367 38.8294 78.3545 38.92 77.8597C39.3861 75.2842 37.9491 72.5438 39.6968 70.0951C40.0593 70.1078 40.4477 70.0571 40.7843 70.1332C44.5647 71.0467 48.2026 72.5184 52.1124 72.9117C52.4879 73.6476 53.0187 74.358 53.2258 75.1447C54.0285 78.1642 54.7017 81.2219 55.4914 84.2541C55.6468 84.8504 56.0999 85.3706 56.4106 85.9162C56.4883 85.3833 56.6696 84.8504 56.6048 84.3303C56.5272 83.6071 56.1129 82.8966 56.1388 82.1861C56.3977 75.2462 55.7763 68.3316 55.4656 61.4043C55.4526 61.0491 55.5173 60.6685 55.4397 60.3386C55.3879 60.1356 55.116 59.996 54.9477 59.8184C54.6111 57.9661 54.8441 56.1137 54.4816 54.198C53.7307 50.303 53.9767 46.2303 53.7825 42.2338C53.6401 39.468 53.4589 36.7022 53.2517 33.9491C53.2388 33.8095 52.8504 33.6953 52.6303 33.5684C52.0218 31.6019 51.4133 29.6734 50.4165 27.7957C48.7981 24.7254 47.6848 21.4013 46.4937 18.1534C46.4031 17.9123 45.6133 16.7578 46.6749 16.7578C56.6307 16.6817 66.5995 16.7197 76.5682 16.707C77.1378 16.707 77.3709 16.9354 77.2155 17.4048C76.6847 19.1303 76.3093 20.9446 75.4678 22.5305C74.8593 23.685 74.691 24.903 74.199 26.0068C73.1115 28.4808 71.791 30.828 71.5191 33.5684C71.3896 33.8729 71.2602 34.1774 71.1437 34.4692C70.2892 36.2581 70.9106 38.212 70.5093 40.1151C69.6548 44.1496 70.8718 48.3491 69.8231 52.5232C69.2405 54.8323 69.7195 57.3952 69.7195 59.8311C69.7195 60.3767 69.7195 60.9222 69.7195 61.4805C69.5512 62.5208 69.2017 63.5612 69.2276 64.5888C69.3312 68.4965 68.9816 72.4042 69.5253 76.3246C69.9008 79.0397 69.6678 81.8435 69.7325 84.5967C69.7325 84.8251 69.9785 85.0534 70.1079 85.2818C70.1986 85.0788 70.328 84.8885 70.3539 84.6728C70.5611 83.0615 70.4187 81.3107 71.0401 79.877C72.0111 77.606 71.2343 74.8402 73.2151 72.9117C73.5387 72.8609 73.8753 72.8356 74.199 72.7468C77.7463 71.8587 81.3066 70.9705 84.8539 70.0824C86.3557 70.8056 85.6954 72.1631 85.7472 73.2669C85.8378 75.0812 85.7602 76.8955 85.786 78.7098C85.786 78.9128 85.9414 79.1285 86.032 79.3315C86.1226 79.1538 86.2003 78.9635 86.291 78.7859C86.9642 77.5045 87.6503 76.2231 88.3106 74.9417C89.191 73.2543 90.0843 71.5795 90.9387 69.8794C91.7414 68.2555 92.4534 66.5807 93.282 64.9695C94.0588 63.447 95.3793 62.1783 95.4829 60.3386C95.6512 60.1737 95.8195 59.996 96.0008 59.8311C96.2079 59.7677 96.5445 59.755 96.5963 59.6281C96.8423 59.0699 96.3762 58.8542 96.0396 58.4736C94.4731 56.6847 93.0101 54.8069 91.5084 52.9673C90.6021 51.8635 89.3851 50.9627 89.1392 49.4402C94.2142 50.95 99.2762 52.5105 104.377 53.9569C107.316 54.7943 110.319 55.4921 113.297 56.2533Z" stroke="currentColor"/>
<path d="M34.1168 49.4293C31.8382 50.1398 29.5855 50.8883 27.294 51.5607C25.1061 52.1951 22.9052 52.766 20.7043 53.337C17.4547 54.1743 14.1923 54.999 10.9298 55.811C10.6449 55.8871 10.3342 55.8744 10.0365 55.8998C8.37931 53.984 6.69628 52.0809 5.06503 50.1398C4.96146 50.0129 5.09093 49.4927 5.22039 49.442C5.93244 49.1628 6.63155 48.7822 6.48914 47.9829C6.33378 47.1202 5.79003 46.4224 4.90968 45.953C4.14584 45.547 3.05834 44.8619 4.32709 43.9484C5.90655 42.7938 5.88066 41.9692 4.22352 40.9669C3.07129 40.2691 2.60521 39.5332 4.04227 38.404C6.16548 36.742 4.04227 34.8389 3.99048 33.05C3.92575 30.8932 3.30432 28.7617 2.90298 26.6176C2.4628 24.3085 1.90611 22.0248 1.51772 19.703C1.207 17.8633 2.34629 16.2901 2.83825 14.6027C3.31727 12.966 4.26236 11.4563 4.84494 9.83229C5.86771 7.00303 6.6186 4.05958 7.83556 1.31913C8.14628 0.608644 9.62217 1.21763 10.4378 1.852C10.4507 2.10574 10.3731 2.48636 10.5025 2.58786C12.8588 4.35139 15.228 6.06417 17.5972 7.80233C19.9534 9.5278 22.3097 11.2533 24.64 13.0041C27.048 14.8057 29.4431 16.6454 31.8641 18.447C33.819 19.906 35.8128 21.327 37.7806 22.786C39.5802 24.1182 41.3538 25.4757 43.1534 26.8079C44.9141 28.102 46.6748 29.3834 48.4485 30.6394C49.8337 31.629 51.2319 32.5806 52.6301 33.5448C52.8761 35.1434 51.3355 35.3337 50.5069 36.0569C48.2801 38.0234 46.1569 40.1168 43.7748 41.893C40.4864 44.3417 37.9878 47.7292 34.1168 49.4293Z" stroke="currentColor"/>
<path d="M113.299 56.2547C110.322 55.4935 107.318 54.7957 104.353 53.9456C99.2653 52.4866 94.2033 50.9387 89.1154 49.4289C88.3127 49.2259 87.8596 48.5916 87.264 48.0968C84.0663 45.3817 80.7649 42.8188 77.5542 40.1291C75.3663 38.2895 73.269 36.3483 71.1328 34.4579C71.2623 34.1534 71.3917 33.8489 71.5083 33.5571C71.6636 33.5317 71.8708 33.5444 71.9873 33.4556C73.4632 32.3518 74.9261 31.2353 76.402 30.1315C78.564 28.5203 80.752 26.9344 82.927 25.3358C84.5323 24.1558 86.1118 22.9505 87.7301 21.7833C89.439 20.54 91.1738 19.3347 92.8828 18.0786C94.9671 16.5435 96.9997 14.9322 99.097 13.4224C101.078 11.976 103.149 10.6566 105.143 9.23558C106.813 8.04297 108.431 6.77424 110.05 5.5182C111.215 4.6174 112.328 3.66585 113.468 2.72699C114.283 2.14338 115.384 0.798523 116.096 1.90232C117.054 3.37404 117.144 5.34058 117.74 7.06605C118.685 9.81919 119.708 12.5343 120.718 15.262C121.753 18.0659 122.09 20.8571 120.769 23.6737C120.472 24.2954 120.29 24.9932 120.187 25.6783C119.759 28.6344 119.526 31.616 118.944 34.534C118.685 35.8028 117.584 37.4648 118.555 38.2514C121.831 40.9284 118.258 41.0807 117.3 42.2352C117.118 42.4509 117.118 43.1741 117.209 43.2122C121.365 44.8108 118.465 46.2825 117.002 47.4497C115.306 48.8073 117.093 48.8199 117.584 49.2894C118.038 49.7207 118.607 49.8603 117.882 50.6723C116.264 52.4358 114.814 54.377 113.299 56.2547Z" stroke="currentColor"/>
<path d="M72.2812 88.6091C74.8187 87.0232 77.3951 85.5134 79.8678 83.8514C81.7451 82.5827 83.5835 81.2632 85.7455 80.4766C86.0044 82.2528 85.7067 84.0163 86.1339 85.856C86.8071 88.7994 86.6647 91.9205 86.9236 94.9655C87.0402 96.3864 87.2343 97.8074 87.4803 99.2157C87.5062 99.3426 88.3866 99.5075 88.4513 99.406C89.1116 98.2895 89.5259 96.9954 90.3285 96.0185C91.1442 95.0162 91.5843 93.8744 92.2317 92.8213C93.1897 91.2354 94.4196 89.8017 95.4553 88.2666C96.1803 87.2008 96.7758 86.0463 97.4232 84.9298C98.2776 83.4581 99.1321 81.9737 99.9995 80.5019C103.171 80.4258 106.266 81.1871 109.437 81.3012C111.224 81.3647 113.114 81.4789 114.94 81.6311C117.283 81.8341 119.639 81.9737 121.982 82.1513C121.296 84.7395 120.61 87.315 119.924 89.9032C119.199 92.6183 118.448 95.3334 117.736 98.0485C116.856 101.423 116.195 104.887 115.043 108.173C114.499 109.721 113.153 108.274 112.234 108.008C108.687 107.006 105.139 105.953 101.631 104.836C97.1513 103.403 92.6977 101.893 88.2312 100.408C87.9335 100.294 87.571 100.256 87.3379 100.066C83.7906 97.3507 80.2821 94.5722 76.7089 91.8951C75.3625 90.8801 73.8737 90.0428 72.4625 89.1293C72.3848 88.939 72.333 88.7741 72.2812 88.6091Z" stroke="currentColor"/>
<path d="M1 82.1259C5.55714 81.961 10.1661 82.1386 14.6585 81.4789C17.3902 81.0856 20.0571 81.4154 22.7241 81.0856C23.216 81.0221 23.6821 80.6922 24.1611 80.4766C24.2906 82.811 26.3491 84.1178 27.2942 86.0336C27.9544 87.3785 29.0419 88.5076 29.8317 89.789C30.8803 91.4891 31.7995 93.2781 32.8352 94.9908C33.9227 96.8051 35.075 98.5814 36.2013 100.383C34.57 100.929 32.9388 101.487 31.3075 102.02C28.6794 102.882 26.0513 103.77 23.4102 104.608C20.821 105.42 18.2187 106.156 15.6294 106.98C13.4027 107.691 11.2277 108.579 8.97499 109.188C7.24017 109.657 7.84865 107.945 7.6674 107.298C6.2174 102.362 4.89687 97.3887 3.57634 92.4026C2.67009 89.0024 1.85446 85.5642 1 82.1259Z" stroke="currentColor"/>
<path d="M113.466 2.72699C112.327 3.65316 111.213 4.6047 110.048 5.51819C108.43 6.77423 106.812 8.04296 105.141 9.23556C103.148 10.6565 101.076 11.976 99.0955 13.4097C96.9982 14.9195 94.9656 16.5308 92.8812 18.0659C91.1853 19.322 89.4375 20.5272 87.7286 21.7706C86.1232 22.9378 84.5308 24.1431 82.9254 25.323C80.7504 26.9216 78.5625 28.5075 76.4004 30.1188C74.9246 31.2099 73.4616 32.3391 71.9857 33.4429C71.8692 33.5317 71.675 33.5063 71.5067 33.5444C71.7915 30.8039 73.0991 28.4568 74.1866 25.9828C74.6656 24.879 74.8469 23.6483 75.4553 22.5065C76.2839 20.9206 76.6594 19.1063 77.2031 17.3808C77.3455 16.8987 77.1254 16.683 76.5558 16.683C66.5871 16.6957 56.6313 16.6703 46.6625 16.7337C45.6139 16.7464 46.3907 17.8883 46.4813 18.1293C47.6853 21.39 48.7987 24.714 50.404 27.7717C51.388 29.6494 52.0094 31.5779 52.6179 33.5444C51.2197 32.5802 49.8215 31.6286 48.4362 30.639C46.6625 29.3703 44.8889 28.1016 43.1411 26.8075C41.3416 25.4753 39.5679 24.1177 37.7683 22.7856C35.8005 21.3265 33.8197 19.9056 31.8518 18.4465C29.4309 16.6449 27.0487 14.8053 24.6277 13.0037C22.2844 11.2528 19.9282 9.52737 17.5849 7.8019C15.2157 6.06374 12.8336 4.35096 10.4903 2.58743C10.3608 2.48593 10.4385 2.10531 10.4255 1.85156C12.2639 2.48593 14.1411 3.04417 15.9407 3.76734C18.1286 4.65545 20.2389 5.7085 22.401 6.63467C24.9255 7.72578 27.4759 8.76613 30.0264 9.7938C32.8099 10.923 35.6322 11.976 38.4157 13.1179C40.5389 13.9806 42.6232 14.9448 44.7335 15.833C45.109 15.9979 45.5232 16.1374 45.9246 16.1374C56.4241 16.1628 66.9366 16.3404 77.4362 16.0359C79.9996 15.9598 82.5111 14.3232 85.0357 13.3843C87.7415 12.3693 90.4602 11.3797 93.1531 10.314C96.2214 9.096 99.2638 7.78921 102.332 6.57123C105.077 5.46744 107.834 4.38902 110.618 3.37404C111.524 3.04417 112.34 2.18143 113.466 2.72699Z" stroke="currentColor"/>
<path d="M86.2667 101.131C84.7001 102.121 83.1725 103.161 81.5542 104.075C79.8582 105.026 78.1104 105.876 76.3627 106.739C75.1069 107.361 73.8381 107.931 72.5694 108.515C67.2872 108.515 61.9921 108.515 56.71 108.502C56.3346 108.502 56.0627 108.553 56.1145 108.997C52.5024 109.403 49.7966 107.031 46.6636 105.978C44.7216 105.318 42.8962 104.354 41.0708 103.415C39.9833 102.857 38.9993 102.083 37.9766 101.41C39.0252 101.144 39.8667 101.233 41.006 101.651C43.4917 102.59 46.2234 102.857 48.8515 103.44C49.7319 103.63 50.677 103.783 51.402 104.252C51.7256 104.455 51.9846 104.582 52.2823 104.531C52.4248 104.506 52.5931 104.151 52.606 103.935C52.7614 102.159 52.2694 100.332 53.0203 98.5809C59.7913 97.2615 66.5493 97.566 73.3073 98.5936C73.9546 99.2661 73.6439 99.8751 73.4497 100.674C73.152 101.854 73.0225 103.199 73.3203 104.354C73.5015 105.051 73.5921 103.973 73.9935 103.897C76.4792 103.415 79.0167 103.009 81.36 102.146C81.9944 101.905 83.0301 102.286 83.5479 101.271C83.8586 100.674 85.0238 101.575 85.6711 100.801C86.0207 100.408 86.2667 100.649 86.2667 101.131Z" stroke="currentColor"/>
<path d="M36.1886 100.396C35.0622 98.594 33.91 96.8178 32.8225 95.0035C31.7868 93.2907 30.8676 91.5018 29.819 89.8017C29.0292 88.5203 27.9417 87.3785 27.2815 86.0463C26.3364 84.1305 24.2779 82.8364 24.1484 80.4893C29.0681 80.4893 33.9747 80.4892 38.8944 80.4766C38.6613 81.9102 38.9203 83.3058 38.493 84.8156C37.7162 87.4926 37.5479 90.36 37.2372 93.1512C36.9783 95.4603 36.8747 97.7947 36.6935 100.116C36.6029 100.205 36.5252 100.294 36.4346 100.396C36.3569 100.396 36.2663 100.396 36.1886 100.396Z" stroke="currentColor"/>
<path d="M36.4336 100.397C36.5242 100.308 36.6019 100.219 36.6925 100.118C38.3497 99.0014 39.9939 97.8722 41.6639 96.7557C44.5251 94.8653 47.3086 92.8227 50.2992 91.1607C51.5938 90.4502 52.3188 88.8769 54.0148 88.8516C53.976 89.5494 53.963 90.2599 53.8853 90.945C53.6005 93.4951 53.3028 96.0326 53.0179 98.5827C52.267 100.321 52.772 102.148 52.6037 103.937C52.5778 104.152 52.4224 104.508 52.28 104.533C51.9822 104.584 51.7233 104.457 51.3996 104.254C50.6746 103.797 49.7296 103.645 48.8492 103.442C46.2211 102.858 43.4894 102.579 41.0037 101.653C39.8644 101.222 39.0099 101.146 37.9742 101.412C37.4564 101.069 36.9514 100.727 36.4336 100.397Z" stroke="currentColor"/>
<path d="M86.2672 101.129C86.2672 100.66 86.0212 100.406 85.6846 100.825C85.0502 101.599 83.8721 100.698 83.5614 101.294C83.0436 102.309 82.0078 101.941 81.3735 102.17C79.0301 103.032 76.4926 103.438 74.0069 103.92C73.6056 103.997 73.515 105.088 73.3337 104.377C73.0359 103.223 73.1525 101.878 73.4632 100.698C73.6703 99.9112 73.9681 99.2895 73.3208 98.6171C73.3208 98.1984 73.3466 97.7797 73.2949 97.3737C72.9194 94.6332 72.1815 91.9182 72.4533 89.1016C73.8775 90.0151 75.3534 90.8524 76.6998 91.8674C80.273 94.5571 83.7815 97.323 87.3288 100.038C87.5748 100.228 87.9244 100.266 88.2221 100.381C87.5619 100.634 86.9145 100.875 86.2672 101.129Z" stroke="currentColor"/>
<path d="M56.1118 108.997C56.06 108.54 56.3319 108.489 56.7073 108.502C61.9895 108.514 67.2845 108.514 72.5667 108.514C72.3725 108.679 72.1653 108.984 71.9582 108.984C66.6761 109.009 61.3939 109.009 56.1118 108.997Z" stroke="currentColor"/>
<path d="M34.1162 49.4304C37.9872 47.7303 40.4988 44.3428 43.7742 41.9068C46.1564 40.1306 48.2796 38.0499 50.5064 36.0707C51.3349 35.3348 52.8626 35.1572 52.6296 33.5586C52.8497 33.6855 53.2381 33.7997 53.251 33.9392C53.4581 36.705 53.6523 39.4582 53.7818 42.224C53.976 46.2205 53.73 50.2931 54.4809 54.1881C54.8564 56.1039 54.6233 57.9562 54.947 59.8085C46.014 59.6436 37.0939 59.466 28.1608 59.3011C28.122 57.601 29.7662 56.8778 30.4394 55.5583C31.1385 54.1754 32.226 52.9701 33.2099 51.7268C33.7666 51.029 34.7376 50.5468 34.1162 49.4304Z" stroke="currentColor"/>
<path d="M71.1289 34.4336C73.265 36.324 75.3623 38.2778 77.5503 40.1048C80.761 42.7945 84.0753 45.37 87.2601 48.0724C87.8556 48.5799 88.3088 49.2016 89.1114 49.4046C89.3574 50.9271 90.5744 51.8279 91.4806 52.9317C92.9954 54.7713 94.4454 56.649 96.0119 58.4379C96.3356 58.8186 96.8146 59.0342 96.5686 59.5925C96.5168 59.7194 96.1802 59.732 95.973 59.7955C96.0378 59.2119 95.6235 59.288 95.261 59.288C88.8266 59.326 82.3923 59.1611 75.9708 59.7701C73.8994 59.9604 71.7891 59.8082 69.7048 59.8082C69.7048 57.3595 69.2257 54.7967 69.8083 52.5003C70.857 48.3389 69.653 44.1267 70.4945 40.0921C70.8958 38.1763 70.2744 36.2352 71.1289 34.4336Z" stroke="currentColor"/>
<path d="M72.4391 89.1032C72.1673 91.907 72.9052 94.6221 73.2807 97.3753C73.3324 97.7812 73.3066 98.1999 73.3066 98.6186C66.5485 97.5782 59.7776 97.2738 53.0195 98.6059C53.3173 96.0558 53.6151 93.5183 53.8869 90.9682C53.9646 90.2704 53.9776 89.5726 54.0164 88.8748C54.0294 88.7479 54.0423 88.621 54.0552 88.4942C54.7414 88.0628 55.4276 87.6441 56.1008 87.2128C60.5285 87.2128 64.9691 87.2254 69.3967 87.2128C69.5391 87.2128 69.6816 87.0605 69.824 86.9844C70.6396 87.5299 71.4552 88.0755 72.2708 88.6337C72.3356 88.7733 72.3874 88.9382 72.4391 89.1032Z" stroke="currentColor"/>
<path d="M28.1602 59.3008C37.0932 59.4657 46.0133 59.6433 54.9463 59.8083C54.8945 60.9374 54.8557 62.0032 54.4025 63.145C53.82 64.6167 54.3637 66.5579 53.6646 67.9408C52.9396 69.4125 54.0918 71.3156 52.357 72.3813C51.9686 71.7089 51.7485 70.7066 51.1659 70.4402C49.1075 69.4886 51.1271 64.0204 46.324 66.2788C43.9807 67.3825 41.6244 68.4736 39.2682 69.5774C37.9088 70.0469 37.624 68.7908 36.9767 68.1691C35.2936 66.5579 33.6753 64.8705 31.9923 63.2592C30.9307 62.2315 29.7785 61.2927 28.678 60.3158C28.4968 59.9732 28.3285 59.6433 28.1602 59.3008Z" stroke="currentColor"/>
<path d="M69.707 59.8047C71.8043 59.8047 73.9017 59.9696 75.9731 59.7666C82.3945 59.1703 88.8288 59.3226 95.2632 59.2845C95.6257 59.2845 96.0529 59.2084 95.9752 59.792C95.8069 59.9569 95.6386 60.1346 95.4574 60.2995C93.7355 61.8981 92.0266 63.5221 90.2788 65.0953C88.6088 66.5924 87.3918 68.5716 85.2556 69.5612C83.8186 68.8634 82.4333 67.6962 80.9316 67.5693C79.0284 67.3917 77.5396 63.6997 75.4552 66.6431C74.1994 68.4193 73.6686 70.6777 72.8142 72.733C72.5682 72.6823 72.1151 72.6823 72.0892 72.5808C71.6749 70.7919 71.5713 68.9776 70.9628 67.1887C70.3802 65.5266 70.5485 63.6236 70.3285 61.8346C70.3155 61.6824 69.9271 61.5682 69.707 61.4413C69.707 60.8958 69.707 60.3502 69.707 59.8047Z" stroke="currentColor"/>
<path d="M54.0525 88.4813C54.0396 88.6081 54.0267 88.735 54.0137 88.8619C52.3177 88.8873 51.5798 90.4478 50.2981 91.171C47.3075 92.833 44.524 94.863 41.6628 96.7661C39.9927 97.8699 38.3485 98.999 36.6914 100.128C36.8727 97.8064 36.9762 95.4847 37.2352 93.1629C37.5459 90.3717 37.7142 87.5043 38.491 84.8273C38.9311 83.3175 38.6722 81.9219 38.8923 80.4883C40.2517 81.1988 41.5981 81.9346 42.9575 82.6324C44.4851 83.419 46.0517 84.1168 47.5534 84.9415C49.107 85.7916 50.5829 86.7558 52.1235 87.6185C52.732 87.9611 53.4052 88.1895 54.0525 88.4813Z" stroke="currentColor"/>
<path d="M99.9884 80.4863C99.1339 81.958 98.2794 83.4424 97.412 84.9142C96.7647 86.0307 96.1692 87.1852 95.4442 88.2509C94.4085 89.7988 93.1915 91.2325 92.2205 92.8057C91.5732 93.8587 91.146 95.0006 90.3174 96.0029C89.5018 96.9798 89.1004 98.2739 88.4402 99.3904C88.3884 99.4919 87.4951 99.3143 87.4692 99.2001C87.2232 97.7918 87.029 96.3835 86.9125 94.9498C86.6665 91.9049 86.796 88.7838 86.1228 85.8403C85.6955 83.988 85.9933 82.2372 85.7344 80.4609C90.4986 80.4736 95.237 80.4736 99.9884 80.4863Z" stroke="currentColor"/>
<path d="M85.2554 69.5742C87.3915 68.5846 88.6085 66.6054 90.2786 65.1083C92.0263 63.5351 93.7353 61.9111 95.4571 60.3125C95.3536 62.1395 94.033 63.4209 93.2562 64.9434C92.4277 66.5546 91.7286 68.2294 90.9129 69.8533C90.0714 71.5534 89.1652 73.2282 88.2848 74.9156C87.6116 76.197 86.9384 77.4784 86.2652 78.7598C86.1745 78.9374 86.0839 79.1277 86.0062 79.3054C85.9156 79.1024 85.7603 78.8994 85.7603 78.6837C85.7344 76.8694 85.8121 75.0424 85.7214 73.2408C85.6696 72.137 86.3429 70.7922 84.8281 70.0563C84.9705 69.8914 85.1129 69.7265 85.2554 69.5742Z" stroke="currentColor"/>
<path d="M28.6797 60.3125C29.7931 61.2894 30.9324 62.241 31.994 63.256C33.677 64.8672 35.2824 66.5546 36.9784 68.1659C37.6257 68.7876 37.9105 70.031 39.2699 69.5742C39.4123 69.7392 39.5417 69.9041 39.6842 70.069C37.9364 72.5177 39.3734 75.2708 38.9074 77.8336C38.8167 78.3158 38.752 78.8106 38.6743 79.3054C38.3636 78.8994 38.0011 78.5188 37.7551 78.0747C36.4475 75.6641 34.9717 73.317 33.9489 70.7922C33.0685 68.6227 31.4891 66.8465 30.8676 64.4993C30.4922 63.0783 28.7833 62.0507 28.6797 60.3125Z" stroke="currentColor"/>
<path d="M52.3593 72.3778C54.107 71.3121 52.9419 69.3963 53.6669 67.9373C54.353 66.5543 53.8222 64.6259 54.4048 63.1415C54.8579 61.9869 54.8968 60.9339 54.9486 59.8047C55.1169 59.9696 55.3887 60.1219 55.4405 60.3249C55.5182 60.6674 55.4535 61.0354 55.4664 61.3906C55.7771 68.3179 56.3986 75.2325 56.1396 82.1724C56.1137 82.8829 56.528 83.5934 56.6057 84.3166C56.6575 84.8367 56.4762 85.3696 56.4115 85.9025C56.1008 85.3442 55.6477 84.8241 55.4923 84.2404C54.7026 81.2082 54.0294 78.1632 53.2267 75.131C53.0195 74.3443 52.4887 73.6465 52.1133 72.898C52.191 72.7204 52.2686 72.5427 52.3593 72.3778Z" stroke="currentColor"/>
<path d="M72.8124 72.736C72.9419 72.7868 73.0713 72.8375 73.1878 72.8883C71.207 74.8167 71.9838 77.5826 71.0128 79.8536C70.4043 81.3 70.5468 83.0508 70.3267 84.6494C70.3008 84.8651 70.1584 85.0554 70.0807 85.2584C69.9512 85.03 69.7182 84.8016 69.7052 84.5733C69.6405 81.8074 69.8735 79.0162 69.4981 76.3012C68.9543 72.3808 69.3039 68.4731 69.2003 64.5654C69.1744 63.5377 69.511 62.4974 69.6923 61.457C69.9124 61.5839 70.2878 61.6981 70.3137 61.8503C70.5338 63.6392 70.3785 65.5423 70.9481 67.2044C71.5695 68.9933 71.6602 70.8076 72.0745 72.5965C72.1133 72.6853 72.5664 72.6853 72.8124 72.736Z" stroke="currentColor"/>
<path d="M69.8365 86.9682C69.6941 87.0443 69.5517 87.1965 69.4092 87.1965C64.9816 87.2092 60.541 87.1965 56.1133 87.1965C56.2816 87.0316 56.4369 86.7398 56.6052 86.7398C60.8646 86.7144 65.111 86.7144 69.3704 86.7271C69.5258 86.7144 69.6811 86.8793 69.8365 86.9682Z" stroke="currentColor"/>
</svg>
