<svg width="40" height="49" viewBox="0 0 40 49" fill="none" xmlns="http://www.w3.org/2000/svg">
<g opacity="0.3">
<path d="M36.2247 17.6387C36.6584 18.9531 37.1402 20.2477 37.5097 21.5857C37.8751 22.9078 38.4412 24.1749 38.9151 25.4696C38.9352 25.5286 38.9151 25.5995 38.9151 25.6663C38.1883 25.6152 37.4575 25.568 36.7307 25.505C36.1605 25.4539 35.5782 25.4224 35.0241 25.4027C34.0403 25.3673 33.0806 25.1312 32.0968 25.1548C30.6271 25.1548 29.1535 25.1548 27.6838 25.1508C27.0132 25.3948 26.443 25.8041 25.8608 26.1976C25.0938 26.7131 24.2948 27.1853 23.5077 27.6732C23.2547 27.504 23.0018 27.3348 22.7488 27.1617C22.7006 27.1341 22.6524 27.083 22.6042 27.083C21.2831 27.079 19.9661 27.079 18.645 27.0869C18.5928 27.0869 18.5446 27.1814 18.4924 27.2286C18.2796 27.3624 18.0668 27.4922 17.858 27.626C17.6572 27.5395 17.4484 27.4647 17.2596 27.3584C16.7818 27.0869 16.324 26.7879 15.8422 26.5281C15.3764 26.2724 14.8905 26.052 14.4167 25.8119C13.9951 25.5955 13.5775 25.3712 13.1558 25.1469C11.63 25.1469 10.1081 25.1469 8.58222 25.1508C8.43365 25.2138 8.29311 25.3201 8.1365 25.3397C7.30932 25.442 6.48213 25.3397 5.63487 25.4617C4.23748 25.6663 2.80798 25.6113 1.39453 25.6624C1.59932 25.0249 1.80009 24.3835 2.00488 23.746C2.26589 22.9354 2.51083 22.1208 2.79995 21.322C3.15331 20.3422 3.54281 19.3781 3.91223 18.4022C4.02065 18.1149 4.10497 17.8198 4.19733 17.5286C4.28968 17.5207 4.38606 17.5207 4.4744 17.501C5.48629 17.2492 6.49819 16.9934 7.50607 16.7337C8.1887 16.5566 8.87133 16.3795 9.54995 16.1828C10.2607 15.9742 10.9594 15.742 11.6661 15.5217C11.8629 15.8719 11.5577 16.0214 11.385 16.2379C11.0798 16.6235 10.7425 16.9973 10.5257 17.4263C10.3169 17.8355 9.80694 18.0598 9.81898 18.5871C9.87119 18.6934 9.9274 18.7957 9.9796 18.9019C10.0117 19.441 10.5458 19.7598 10.6622 20.2044C10.855 20.9324 11.3449 21.4833 11.6179 22.1562C11.9351 22.9393 12.3929 23.6673 12.7985 24.415C12.8748 24.5527 12.9872 24.6708 13.0836 24.7967C13.1077 24.6432 13.1277 24.4937 13.1558 24.3402C13.3004 23.5414 12.8547 22.6914 13.3968 21.9319C13.5092 21.9359 13.6297 21.9201 13.7341 21.9437C14.9066 22.2271 16.0349 22.6835 17.2476 22.8055C17.3641 23.0338 17.5287 23.2541 17.5929 23.4981C17.8419 24.4347 18.0507 25.383 18.2956 26.3235C18.3438 26.5085 18.4844 26.6698 18.5807 26.839C18.6048 26.6737 18.661 26.5085 18.641 26.3471C18.6169 26.1228 18.4884 25.9025 18.4964 25.6821C18.5767 23.5296 18.384 21.385 18.2876 19.2364C18.2836 19.1262 18.3037 19.0082 18.2796 18.9059C18.2635 18.8429 18.1792 18.7996 18.127 18.7445C18.0226 18.17 18.0949 17.5955 17.9824 17.0013C17.7495 15.7932 17.8258 14.53 17.7656 13.2905C17.7214 12.4326 17.6652 11.5748 17.601 10.7208C17.5969 10.6776 17.4765 10.6421 17.4082 10.6028C17.2195 9.99285 17.0308 9.39472 16.7216 8.81232C16.2196 7.86003 15.8743 6.82903 15.5049 5.82165C15.4768 5.74688 15.2318 5.38879 15.5611 5.38879C18.649 5.36518 21.7409 5.37698 24.8328 5.37305C25.0095 5.37305 25.0818 5.44388 25.0336 5.58948C24.869 6.12465 24.7525 6.68737 24.4915 7.17926C24.3028 7.53735 24.2506 7.91512 24.098 8.25747C23.7607 9.02482 23.3511 9.75281 23.2668 10.6028C23.2266 10.6972 23.1865 10.7917 23.1503 10.8822C22.8853 11.437 23.0781 12.043 22.9536 12.6333C22.6886 13.8847 23.066 15.1872 22.7408 16.4818C22.5601 17.198 22.7086 17.9929 22.7086 18.7484C22.7086 18.9177 22.7086 19.0869 22.7086 19.26C22.6564 19.5827 22.548 19.9054 22.5561 20.2241C22.5882 21.4361 22.4798 22.6481 22.6484 23.8641C22.7649 24.7062 22.6926 25.5758 22.7127 26.4298C22.7127 26.5006 22.7889 26.5714 22.8291 26.6423C22.8572 26.5793 22.8974 26.5203 22.9054 26.4534C22.9696 25.9536 22.9255 25.4106 23.1182 24.9659C23.4194 24.2615 23.1784 23.4037 23.7928 22.8055C23.8932 22.7898 23.9976 22.7819 24.098 22.7544C25.1982 22.4789 26.3025 22.2035 27.4027 21.928C27.8685 22.1523 27.6637 22.5734 27.6798 22.9157C27.7079 23.4784 27.6838 24.0412 27.6918 24.6039C27.6918 24.6668 27.74 24.7337 27.7681 24.7967C27.7962 24.7416 27.8203 24.6826 27.8484 24.6275C28.0572 24.23 28.2701 23.8326 28.4749 23.4351C28.7479 22.9118 29.025 22.3923 29.29 21.865C29.539 21.3614 29.7598 20.8419 30.0168 20.3422C30.2577 19.8699 30.6673 19.4764 30.6994 18.9059C30.7516 18.8547 30.8038 18.7996 30.86 18.7484C30.9243 18.7288 31.0287 18.7248 31.0448 18.6855C31.121 18.5123 30.9765 18.4454 30.8721 18.3274C30.3862 17.7725 29.9325 17.1901 29.4667 16.6196C29.1856 16.2772 28.8081 15.9978 28.7318 15.5256C30.3059 15.9939 31.876 16.4779 33.458 16.9265C34.3696 17.1862 35.3012 17.4026 36.2247 17.6387Z" fill="#F68F22"/>
<path d="M11.6703 15.5209C10.9636 15.7412 10.2649 15.9734 9.55417 16.182C8.87555 16.3787 8.19292 16.5558 7.51029 16.7329C6.50241 16.9926 5.49051 17.2484 4.47861 17.5002C4.39027 17.5238 4.2939 17.5199 4.20155 17.5278C3.68757 16.9336 3.16556 16.3433 2.65961 15.7412C2.62748 15.7019 2.66764 15.5405 2.70779 15.5248C2.92864 15.4382 3.14548 15.3202 3.10131 15.0723C3.05312 14.8047 2.88447 14.5882 2.61142 14.4426C2.37451 14.3167 2.03721 14.1042 2.43072 13.8209C2.92061 13.4628 2.91258 13.207 2.3986 12.8962C2.04122 12.6797 1.89667 12.4515 2.34238 12.1013C3.00092 11.5858 2.34238 10.9955 2.32632 10.4407C2.30624 9.77169 2.1135 9.11059 1.98902 8.44556C1.8525 7.72937 1.67983 7.02106 1.55937 6.30093C1.463 5.73035 1.81636 5.24239 1.96895 4.71903C2.11752 4.2114 2.41065 3.74312 2.59134 3.23943C2.90857 2.3619 3.14146 1.44896 3.51892 0.598982C3.61529 0.378617 4.07305 0.567501 4.32603 0.764256C4.33004 0.842958 4.30595 0.961011 4.3461 0.992492C5.07692 1.53947 5.81175 2.07071 6.54658 2.60982C7.27739 3.14499 8.00821 3.68016 8.73099 4.2232C9.47787 4.78199 10.2207 5.35258 10.9716 5.91136C11.578 6.3639 12.1963 6.80463 12.8067 7.25716C13.3648 7.67035 13.915 8.0914 14.4731 8.50459C15.0192 8.90597 15.5653 9.30341 16.1154 9.69299C16.5451 9.99992 16.9788 10.2951 17.4124 10.5941C17.4887 11.0899 17.0109 11.149 16.7539 11.3733C16.0632 11.9832 15.4047 12.6325 14.6659 13.1834C13.6459 13.9429 12.8709 14.9936 11.6703 15.5209Z" fill="#804517"/>
<path d="M36.2229 17.6373C35.2993 17.4011 34.3678 17.1847 33.4482 16.9211C31.8701 16.4685 30.3001 15.9884 28.722 15.5202C28.4731 15.4572 28.3325 15.2605 28.1478 15.107C27.156 14.2649 26.132 13.47 25.1362 12.6357C24.4576 12.0651 23.8071 11.4631 23.1445 10.8767C23.1847 10.7823 23.2248 10.6879 23.261 10.5974C23.3092 10.5895 23.3734 10.5934 23.4096 10.5659C23.8673 10.2235 24.3211 9.87723 24.7788 9.53488C25.4494 9.03512 26.128 8.54323 26.8026 8.04741C27.3005 7.68145 27.7904 7.30761 28.2924 6.94558C28.8224 6.55994 29.3605 6.18611 29.8905 5.79653C30.537 5.32039 31.1674 4.82063 31.8179 4.35235C32.4323 3.90375 33.0748 3.4945 33.6932 3.05377C34.2112 2.68387 34.7131 2.29036 35.215 1.90078C35.5764 1.62139 35.9217 1.32626 36.2751 1.03506C36.5281 0.854046 36.8694 0.436925 37.0902 0.779279C37.3874 1.23575 37.4155 1.84569 37.6002 2.38087C37.8933 3.23478 38.2106 4.07689 38.5238 4.92294C38.845 5.7926 38.9494 6.65832 38.5398 7.53191C38.4475 7.72473 38.3913 7.94116 38.3591 8.15366C38.2266 9.07054 38.1543 9.99529 37.9736 10.9004C37.8933 11.2939 37.552 11.8094 37.8532 12.0533C38.8691 12.8837 37.7608 12.9309 37.4637 13.289C37.4075 13.3559 37.4075 13.5802 37.4356 13.592C38.7245 14.0878 37.8251 14.5443 37.3713 14.9063C36.8453 15.3273 37.3994 15.3313 37.552 15.4769C37.6926 15.6107 37.8692 15.654 37.6444 15.9058C37.1424 16.4528 36.6927 17.0549 36.2229 17.6373Z" fill="#804517"/>
<path d="M23.5078 27.6718C24.2948 27.1799 25.0939 26.7117 25.8609 26.1962C26.4431 25.8026 27.0133 25.3934 27.6839 25.1494C27.7642 25.7003 27.6719 26.2473 27.8044 26.8179C28.0132 27.7308 27.969 28.6989 28.0493 29.6433C28.0854 30.084 28.1457 30.5248 28.222 30.9616C28.23 31.0009 28.5031 31.0521 28.5231 31.0206C28.7279 30.6743 28.8564 30.2729 29.1054 29.9699C29.3583 29.659 29.4949 29.3049 29.6956 28.9783C29.9928 28.4864 30.3743 28.0417 30.6955 27.5656C30.9204 27.235 31.1051 26.8769 31.3058 26.5306C31.5709 26.0742 31.8359 25.6138 32.1049 25.1573C33.0887 25.1337 34.0484 25.3698 35.0322 25.4052C35.5863 25.4249 36.1726 25.4603 36.7388 25.5075C37.4656 25.5705 38.1964 25.6138 38.9232 25.6688C38.7104 26.4716 38.4975 27.2704 38.2847 28.0732C38.0599 28.9153 37.827 29.7574 37.6061 30.5995C37.3331 31.6463 37.1283 32.7206 36.7709 33.7397C36.6023 34.2198 36.1846 33.7712 35.8995 33.6886C34.7993 33.3777 33.6991 33.0511 32.6109 32.7048C31.2215 32.2601 29.8402 31.7919 28.4549 31.3315C28.3625 31.296 28.2501 31.2842 28.1778 31.2252C27.0776 30.3831 25.9894 29.5213 24.8811 28.691C24.4635 28.3762 24.0017 28.1165 23.564 27.8332C23.5399 27.7741 23.5239 27.723 23.5078 27.6718Z" fill="#E68021"/>
<path d="M1.39453 25.661C2.80798 25.6098 4.23748 25.6649 5.63085 25.4603C6.47812 25.3383 7.3053 25.4406 8.13249 25.3383C8.28508 25.3186 8.42963 25.2163 8.57821 25.1494C8.61836 25.8735 9.25682 26.2788 9.54995 26.873C9.75474 27.2901 10.092 27.6403 10.337 28.0378C10.6622 28.5651 10.9473 29.1199 11.2686 29.6512C11.6059 30.2139 11.9632 30.7648 12.3126 31.3236C11.8066 31.4928 11.3007 31.6659 10.7947 31.8312C9.9796 32.0988 9.16446 32.3743 8.34531 32.634C7.54221 32.8858 6.73511 33.1141 5.93201 33.3698C5.24135 33.5902 4.56675 33.8657 3.86806 34.0546C3.32999 34.2002 3.51871 33.6689 3.4625 33.4682C3.01277 31.9375 2.60319 30.3949 2.19361 28.8484C1.91253 27.7938 1.65955 26.7274 1.39453 25.661Z" fill="#E68021"/>
<path d="M36.2752 1.03617C35.9218 1.32343 35.5765 1.61856 35.2151 1.90189C34.7132 2.29147 34.2112 2.68498 33.6932 3.05488C33.0749 3.49561 32.4324 3.90486 31.818 4.34952C31.1675 4.8178 30.5371 5.31756 29.8906 5.7937C29.3646 6.18328 28.8225 6.55711 28.2924 6.94275C27.7945 7.30478 27.3006 7.67862 26.8027 8.04458C26.1281 8.5404 25.4495 9.03229 24.7789 9.53205C24.3211 9.87047 23.8674 10.2207 23.4096 10.563C23.3735 10.5906 23.3132 10.5827 23.261 10.5945C23.3494 9.74454 23.7549 9.01655 24.0922 8.24921C24.2408 7.90685 24.297 7.52515 24.4858 7.17099C24.7427 6.6791 24.8592 6.11638 25.0278 5.58121C25.072 5.43168 25.0038 5.36478 24.8271 5.36478C21.7352 5.36871 18.6473 5.36084 15.5554 5.38052C15.2301 5.38445 15.471 5.73861 15.4991 5.81338C15.8726 6.8247 16.2179 7.8557 16.7158 8.80405C17.021 9.38645 17.2137 9.98458 17.4025 10.5945C16.9688 10.2955 16.5351 10.0003 16.1055 9.69339C15.5554 9.29988 15.0052 8.90637 14.4631 8.50499C13.905 8.0918 13.3549 7.67075 12.7967 7.25756C12.1864 6.80502 11.572 6.36429 10.9617 5.91176C10.2108 5.35297 9.47192 4.78238 8.72102 4.2236C7.99422 3.68056 7.26341 3.14538 6.53661 2.61021C5.80178 2.0711 5.06293 1.53986 4.33613 0.992884C4.29598 0.961403 4.32007 0.84335 4.31605 0.764648C4.88625 0.961403 5.46849 1.13455 6.02664 1.35885C6.70526 1.63431 7.35978 1.96092 8.03036 2.24818C8.81338 2.5866 9.60443 2.90928 10.3955 3.22802C11.2588 3.57824 12.1342 3.90486 12.9975 4.25902C13.656 4.5266 14.3025 4.82567 14.957 5.10113C15.0735 5.15228 15.202 5.19557 15.3265 5.19557C18.583 5.20344 21.8436 5.25853 25.1001 5.16409C25.8952 5.14048 26.6742 4.63285 27.4572 4.34165C28.2964 4.02684 29.1397 3.71991 29.9749 3.38936C30.9266 3.01159 31.8702 2.60627 32.8219 2.22851C33.6732 1.88615 34.5285 1.55167 35.3918 1.23686C35.6729 1.13455 35.9258 0.866961 36.2752 1.03617Z" fill="#E68021"/>
<path d="M27.8371 31.5564C27.3512 31.8633 26.8774 32.186 26.3754 32.4693C25.8494 32.7645 25.3073 33.0281 24.7652 33.2957C24.3757 33.4885 23.9822 33.6656 23.5887 33.8466C21.9504 33.8466 20.3081 33.8466 18.6698 33.8427C18.5533 33.8427 18.469 33.8584 18.485 33.9961C17.3647 34.1221 16.5255 33.3862 15.5538 33.0596C14.9514 32.855 14.3853 32.5559 13.8191 32.2647C13.4818 32.0916 13.1766 31.8515 12.8594 31.643C13.1846 31.5603 13.4456 31.5879 13.799 31.7177C14.57 32.0089 15.4172 32.0916 16.2324 32.2726C16.5054 32.3316 16.7985 32.3788 17.0234 32.5244C17.1238 32.5874 17.2041 32.6267 17.2965 32.611C17.3406 32.6031 17.3928 32.4929 17.3969 32.426C17.445 31.8751 17.2925 31.3085 17.5253 30.7654C19.6254 30.3562 21.7215 30.4506 23.8176 30.7694C24.0184 30.9779 23.922 31.1668 23.8618 31.4147C23.7694 31.7807 23.7292 32.1978 23.8216 32.5559C23.8778 32.7723 23.9059 32.4379 24.0304 32.4142C24.8014 32.2647 25.5884 32.1388 26.3152 31.8712C26.512 31.7964 26.8332 31.9145 26.9938 31.5997C27.0902 31.4147 27.4516 31.6941 27.6524 31.4541C27.7608 31.3321 27.8371 31.4069 27.8371 31.5564Z" fill="#C6B5A7"/>
<path d="M12.3125 31.3275C11.9632 30.7687 11.6058 30.2178 11.2685 29.6551C10.9472 29.1239 10.6621 28.569 10.3369 28.0417C10.092 27.6443 9.75466 27.2901 9.54987 26.8769C9.25674 26.2827 8.61828 25.8813 8.57812 25.1534C10.104 25.1534 11.6259 25.1533 13.1517 25.1494C13.0795 25.5941 13.1598 26.0269 13.0273 26.4952C12.7863 27.3255 12.7341 28.2149 12.6378 29.0806C12.5574 29.7968 12.5253 30.5208 12.4691 31.2409C12.441 31.2685 12.4169 31.296 12.3888 31.3275C12.3647 31.3275 12.3366 31.3275 12.3125 31.3275Z" fill="#D26B1A"/>
<path d="M12.3828 31.328C12.4109 31.3005 12.435 31.2729 12.4631 31.2414C12.9771 30.8952 13.4871 30.5449 14.0051 30.1986C14.8925 29.6123 15.7558 28.9788 16.6834 28.4633C17.0849 28.2429 17.3098 27.7549 17.8358 27.7471C17.8238 27.9635 17.8198 28.1839 17.7957 28.3964C17.7073 29.1873 17.615 29.9743 17.5266 30.7653C17.2937 31.3044 17.4503 31.8711 17.3981 32.4259C17.3901 32.4928 17.3419 32.603 17.2977 32.6109C17.2054 32.6266 17.1251 32.5872 17.0247 32.5243C16.7998 32.3826 16.5067 32.3354 16.2336 32.2724C15.4185 32.0914 14.5712 32.0049 13.8003 31.7176C13.4469 31.5838 13.1819 31.5602 12.8607 31.6428C12.7 31.5366 12.5434 31.4303 12.3828 31.328Z" fill="#D9C5B8"/>
<path d="M27.8418 31.5576C27.8418 31.412 27.7655 31.3333 27.6611 31.4632C27.4644 31.7032 27.099 31.4238 27.0026 31.6088C26.842 31.9236 26.5207 31.8095 26.324 31.8803C25.5972 32.1479 24.8101 32.2738 24.0392 32.4234C23.9147 32.447 23.8866 32.7854 23.8304 32.565C23.738 32.2069 23.7741 31.7898 23.8705 31.4238C23.9348 31.1799 24.0271 30.987 23.8263 30.7785C23.8263 30.6486 23.8344 30.5188 23.8183 30.3928C23.7019 29.5429 23.473 28.7007 23.5573 27.8271C23.999 28.1105 24.4568 28.3702 24.8744 28.685C25.9827 29.5192 27.0709 30.3771 28.1711 31.2192C28.2474 31.2782 28.3558 31.2901 28.4482 31.3255C28.2434 31.4042 28.0426 31.4789 27.8418 31.5576Z" fill="#D9C5B8"/>
<path d="M18.4863 33.9968C18.4703 33.8551 18.5546 33.8394 18.671 33.8433C20.3094 33.8472 21.9517 33.8472 23.59 33.8472C23.5298 33.8984 23.4655 33.9928 23.4013 33.9928C21.763 34.0007 20.1246 34.0007 18.4863 33.9968Z" fill="#D9C5B8"/>
<path d="M11.6676 15.5205C12.8683 14.9932 13.6473 13.9425 14.6632 13.1869C15.402 12.636 16.0606 11.9907 16.7512 11.3768C17.0082 11.1486 17.482 11.0935 17.4098 10.5977C17.478 10.637 17.5985 10.6724 17.6025 10.7157C17.6668 11.5736 17.727 12.4275 17.7671 13.2853C17.8274 14.5249 17.7511 15.788 17.984 16.9961C18.1004 17.5903 18.0281 18.1648 18.1285 18.7394C15.3579 18.6882 12.5912 18.6331 9.82052 18.582C9.80848 18.0547 10.3184 17.8304 10.5272 17.4211C10.7441 16.9922 11.0814 16.6183 11.3866 16.2327C11.5592 16.0163 11.8604 15.8667 11.6676 15.5205Z" fill="#E68021"/>
<path d="M23.1515 10.8701C23.8141 11.4564 24.4646 12.0625 25.1432 12.6291C26.139 13.4633 27.167 14.2622 28.1548 15.1003C28.3395 15.2578 28.48 15.4506 28.729 15.5135C28.8053 15.9857 29.1827 16.2651 29.4638 16.6075C29.9336 17.1781 30.3834 17.7605 30.8692 18.3153C30.9696 18.4334 31.1182 18.5003 31.0419 18.6734C31.0258 18.7128 30.9214 18.7167 30.8572 18.7364C30.8773 18.5554 30.7488 18.579 30.6363 18.579C28.6406 18.5908 26.645 18.5396 24.6533 18.7285C24.0108 18.7875 23.3563 18.7403 22.7098 18.7403C22.7098 17.9808 22.5612 17.186 22.7419 16.4737C23.0672 15.183 22.6937 13.8765 22.9547 12.6252C23.0792 12.031 22.8865 11.4289 23.1515 10.8701Z" fill="#E68021"/>
<path d="M23.5505 27.8261C23.4662 28.6958 23.6951 29.5379 23.8116 30.3918C23.8276 30.5177 23.8196 30.6476 23.8196 30.7774C21.7235 30.4547 19.6234 30.3603 17.5273 30.7735C17.6197 29.9825 17.7121 29.1955 17.7964 28.4046C17.8205 28.1881 17.8245 27.9717 17.8365 27.7553C17.8406 27.7159 17.8446 27.6766 17.8486 27.6372C18.0614 27.5034 18.2742 27.3736 18.483 27.2398C19.8563 27.2398 21.2336 27.2437 22.6069 27.2398C22.6511 27.2398 22.6953 27.1926 22.7394 27.1689C22.9924 27.3382 23.2454 27.5074 23.4983 27.6805C23.5184 27.7238 23.5345 27.775 23.5505 27.8261Z" fill="#161616"/>
<path d="M9.82031 18.5811C12.591 18.6322 15.3576 18.6873 18.1283 18.7385C18.1123 19.0887 18.1002 19.4192 17.9597 19.7734C17.779 20.2299 17.9476 20.8319 17.7308 21.2608C17.5059 21.7173 17.8633 22.3076 17.3252 22.6381C17.2048 22.4296 17.1365 22.1187 16.9558 22.0361C16.3173 21.7409 16.9438 20.0449 15.454 20.7453C14.7272 21.0877 13.9964 21.4261 13.2656 21.7685C12.844 21.9141 12.7556 21.5245 12.5548 21.3317C12.0328 20.8319 11.5309 20.3086 11.0089 19.8088C10.6796 19.4901 10.3222 19.1989 9.98093 18.8959C9.92471 18.7896 9.87251 18.6873 9.82031 18.5811Z" fill="#D26B1A"/>
<path d="M22.7031 18.7405C23.3536 18.7405 24.0041 18.7916 24.6466 18.7287C26.6383 18.5437 28.634 18.5909 30.6296 18.5791C30.7421 18.5791 30.8746 18.5555 30.8505 18.7365C30.7983 18.7877 30.7461 18.8428 30.6899 18.8939C30.1558 19.3898 29.6258 19.8935 29.0837 20.3814C28.5657 20.8457 28.1882 21.4596 27.5257 21.7666C27.08 21.5501 26.6503 21.1881 26.1845 21.1488C25.5943 21.0937 25.1325 19.9485 24.486 20.8615C24.0965 21.4124 23.9319 22.1128 23.6668 22.7503C23.5905 22.7346 23.45 22.7346 23.442 22.7031C23.3135 22.1483 23.2814 21.5855 23.0926 21.0307C22.9119 20.5152 22.9641 19.9249 22.8959 19.3701C22.8919 19.3229 22.7714 19.2875 22.7031 19.2481C22.7031 19.0789 22.7031 18.9097 22.7031 18.7405Z" fill="#D26B1A"/>
<path d="M17.8496 27.6324C17.8456 27.6718 17.8416 27.7111 17.8375 27.7505C17.3115 27.7584 17.0826 28.2424 16.6851 28.4667C15.7575 28.9822 14.8942 29.6118 14.0068 30.2021C13.4888 30.5444 12.9788 30.8946 12.4648 31.2449C12.5211 30.5247 12.5532 29.8046 12.6335 29.0845C12.7299 28.2188 12.7821 27.3294 13.023 26.4991C13.1595 26.0308 13.0792 25.598 13.1475 25.1533C13.5691 25.3737 13.9867 25.6019 14.4083 25.8184C14.8822 26.0623 15.368 26.2788 15.8338 26.5345C16.3157 26.7982 16.7734 27.0973 17.2513 27.3648C17.44 27.4711 17.6488 27.5419 17.8496 27.6324Z" fill="#E68021"/>
<path d="M32.0968 25.1534C31.8318 25.6099 31.5668 26.0703 31.2977 26.5267C31.097 26.873 30.9122 27.2311 30.6874 27.5617C30.3661 28.0417 29.9887 28.4864 29.6875 28.9744C29.4868 29.301 29.3542 29.6551 29.0973 29.966C28.8443 30.269 28.7198 30.6704 28.515 31.0167C28.499 31.0482 28.2219 30.9931 28.2139 30.9577C28.1376 30.5209 28.0773 30.0841 28.0412 29.6394C27.9649 28.695 28.005 27.7269 27.7962 26.814C27.6637 26.2395 27.7561 25.6964 27.6758 25.1455C29.1535 25.1494 30.6231 25.1494 32.0968 25.1534Z" fill="#D26B1A"/>
<path d="M27.527 21.7701C28.1896 21.4631 28.567 20.8493 29.085 20.3849C29.6271 19.897 30.1572 19.3933 30.6912 18.8975C30.6591 19.4641 30.2495 19.8616 30.0086 20.3338C29.7516 20.8335 29.5348 21.353 29.2818 21.8567C29.0208 22.384 28.7397 22.9034 28.4667 23.4268C28.2579 23.8242 28.0491 24.2216 27.8402 24.6191C27.8121 24.6742 27.784 24.7332 27.7599 24.7883C27.7318 24.7253 27.6836 24.6624 27.6836 24.5955C27.6756 24.0328 27.6997 23.4661 27.6716 22.9073C27.6555 22.565 27.8643 22.1479 27.3945 21.9196C27.4387 21.8685 27.4829 21.8173 27.527 21.7701Z" fill="#E68021"/>
<path d="M9.98047 18.8975C10.3258 19.2005 10.6792 19.4956 11.0084 19.8104C11.5304 20.3102 12.0284 20.8335 12.5544 21.3333C12.7552 21.5261 12.8435 21.9117 13.2651 21.7701C13.3093 21.8212 13.3495 21.8724 13.3936 21.9236C12.8515 22.683 13.2973 23.5369 13.1527 24.3318C13.1246 24.4814 13.1045 24.6348 13.0804 24.7883C12.984 24.6624 12.8716 24.5443 12.7953 24.4066C12.3898 23.6589 11.932 22.9309 11.6148 22.1479C11.3417 21.475 10.8518 20.924 10.6591 20.196C10.5426 19.7553 10.0126 19.4366 9.98047 18.8975Z" fill="#E68021"/>
<path d="M17.3263 22.6389C17.8684 22.3084 17.507 21.7142 17.7319 21.2617C17.9447 20.8327 17.78 20.2346 17.9607 19.7742C18.1013 19.4161 18.1133 19.0895 18.1294 18.7393C18.1816 18.7904 18.2659 18.8376 18.282 18.9006C18.3061 19.0068 18.286 19.121 18.29 19.2311C18.3864 21.3797 18.5791 23.5243 18.4988 25.6769C18.4908 25.8972 18.6193 26.1176 18.6434 26.3419C18.6594 26.5032 18.6032 26.6685 18.5831 26.8338C18.4868 26.6606 18.3462 26.4993 18.298 26.3183C18.0531 25.3778 17.8443 24.4334 17.5953 23.4929C17.5311 23.2489 17.3664 23.0325 17.25 22.8003C17.2741 22.7452 17.2982 22.6901 17.3263 22.6389Z" fill="#E68021"/>
<path d="M23.6685 22.7493C23.7086 22.765 23.7488 22.7808 23.7849 22.7965C23.1706 23.3946 23.4115 24.2525 23.1103 24.9569C22.9216 25.4055 22.9658 25.9485 22.8975 26.4443C22.8895 26.5112 22.8453 26.5703 22.8212 26.6332C22.7811 26.5624 22.7088 26.4916 22.7048 26.4207C22.6847 25.5629 22.757 24.6972 22.6405 23.855C22.4719 22.6391 22.5803 21.4271 22.5482 20.2151C22.5401 19.8963 22.6445 19.5737 22.7007 19.251C22.769 19.2903 22.8855 19.3257 22.8935 19.373C22.9618 19.9278 22.9136 20.5181 23.0902 21.0336C23.283 21.5884 23.3111 22.1511 23.4396 22.706C23.4516 22.7335 23.5922 22.7335 23.6685 22.7493Z" fill="#E68021"/>
<path d="M22.7408 27.1652C22.6966 27.1889 22.6524 27.2361 22.6083 27.2361C21.235 27.24 19.8577 27.2361 18.4844 27.2361C18.5366 27.1849 18.5848 27.0944 18.637 27.0944C19.9581 27.0865 21.2751 27.0865 22.5962 27.0905C22.6444 27.0865 22.6926 27.1377 22.7408 27.1652Z" fill="#804517"/>
</g>
<path opacity="0.35" d="M23.1602 39.3333H18.1602C17.0404 39.3333 15.9987 39.776 15.1914 40.5573C14.4102 41.3646 13.9935 42.4062 13.9935 43.5C13.9935 44.6198 14.4102 45.6615 15.1914 46.4688C15.9987 47.25 17.0404 47.6667 18.1602 47.6667H23.1602C24.2539 47.6667 25.2956 47.25 26.1029 46.4688C26.8841 45.6615 27.3268 44.6198 27.3268 43.5C27.3268 42.4062 26.8841 41.3646 26.1029 40.5573C25.2956 39.776 24.2539 39.3333 23.1602 39.3333ZM23.1602 38.5C25.9206 38.5 28.1602 40.7396 28.1602 43.5C28.1602 46.2865 25.9206 48.5 23.1602 48.5H18.1602C15.3737 48.5 13.1602 46.2865 13.1602 43.5C13.1602 40.7396 15.3737 38.5 18.1602 38.5H23.1602ZM18.1602 40.1667C19.9831 40.1667 21.4935 41.6771 21.4935 43.5C21.4935 45.349 19.9831 46.8333 18.1602 46.8333C16.3112 46.8333 14.8268 45.349 14.8268 43.5C14.8268 41.6771 16.3112 40.1667 18.1602 40.1667Z" fill="#91908E"/>
</svg>
