<svg width="62" height="55" viewBox="0 0 62 55" fill="none" xmlns="http://www.w3.org/2000/svg">
<rect width="25.2898" height="15.8062" transform="matrix(-1 0 0 1 41.8125 25.7373)" fill="black"/>
<path d="M5.03658 27.875C4.3425 29.9786 3.5713 32.0506 2.98005 34.1919C2.39523 36.3081 1.48907 38.336 0.730724 40.4081C0.698593 40.5025 0.730724 40.6159 0.730724 40.723C1.89395 40.6411 3.0636 40.5655 4.22682 40.4648C5.1394 40.3829 6.07127 40.3325 6.95814 40.301C8.53267 40.2443 10.0686 39.8664 11.6432 39.9042C13.9953 39.9042 16.3539 39.9042 18.706 39.8979C19.7793 40.2884 20.6919 40.9434 21.6237 41.5732C22.8512 42.3982 24.1301 43.154 25.3897 43.935C25.7946 43.6641 26.1995 43.3933 26.6044 43.1162C26.6815 43.0721 26.7586 42.9903 26.8357 42.9903C28.9501 42.984 31.058 42.984 33.1724 42.9966C33.256 42.9966 33.3331 43.1477 33.4166 43.2233C33.7572 43.4374 34.0978 43.6452 34.432 43.8594C34.7534 43.7208 35.0875 43.6012 35.3896 43.4311C36.1544 42.9966 36.887 42.5179 37.6582 42.1022C38.4037 41.6929 39.1813 41.3402 39.9397 40.956C40.6145 40.6096 41.2828 40.2506 41.9576 39.8916C44.3997 39.8916 46.8354 39.8916 49.2776 39.8979C49.5154 39.9987 49.7403 40.1687 49.9909 40.2002C51.3148 40.364 52.6387 40.2002 53.9947 40.3955C56.2312 40.723 58.5191 40.6348 60.7812 40.7167C60.4535 39.6964 60.1322 38.6698 59.8044 37.6495C59.3867 36.3521 58.9946 35.0485 58.5319 33.77C57.9664 32.2018 57.343 30.6588 56.7517 29.0968C56.5782 28.6371 56.4433 28.1647 56.2955 27.6987C56.1476 27.6861 55.9934 27.6861 55.852 27.6546C54.2325 27.2515 52.613 26.8422 50.9999 26.4265C49.9074 26.1431 48.8148 25.8597 47.7287 25.5448C46.5912 25.211 45.473 24.8394 44.3419 24.4867C44.027 25.0472 44.5154 25.2866 44.7918 25.6329C45.2802 26.2501 45.82 26.8485 46.1671 27.5349C46.5013 28.1899 47.3174 28.5489 47.2982 29.3929C47.2146 29.5629 47.1246 29.7266 47.0411 29.8967C46.9897 30.7595 46.1349 31.2697 45.9486 31.9813C45.6401 33.1465 44.856 34.0282 44.419 35.1051C43.9113 36.3584 43.1787 37.5236 42.5296 38.7202C42.4075 38.9406 42.2275 39.1296 42.0733 39.3311C42.0347 39.0855 42.0026 38.8462 41.9576 38.6005C41.7263 37.322 42.4396 35.9617 41.572 34.7462C41.3921 34.7525 41.1993 34.7273 41.0322 34.7651C39.1556 35.2185 37.3497 35.9491 35.4089 36.1443C35.2225 36.5096 34.959 36.8623 34.8562 37.2528C34.4577 38.7517 34.1235 40.2695 33.7315 41.7747C33.6544 42.0707 33.4295 42.329 33.2752 42.5998C33.2367 42.3353 33.1467 42.0707 33.1788 41.8125C33.2174 41.4535 33.423 41.1008 33.4102 40.7482C33.2817 37.3032 33.5901 33.8707 33.7444 30.432C33.7508 30.2557 33.7187 30.0667 33.7572 29.903C33.7829 29.8022 33.9179 29.7329 34.0014 29.6448C34.1685 28.7253 34.0529 27.8058 34.2328 26.8548C34.6055 24.9213 34.4834 22.8996 34.5798 20.9157C34.6505 19.5428 34.7405 18.1698 34.8433 16.8031C34.8498 16.7339 35.0426 16.6772 35.1518 16.6142C35.4539 15.638 35.7559 14.6807 36.2508 13.7486C37.0541 12.2245 37.6068 10.5744 38.198 8.96211C38.243 8.84245 38.635 8.26933 38.1081 8.26933C33.166 8.23154 28.2175 8.25044 23.269 8.24414C22.9862 8.24414 22.8705 8.3575 22.9476 8.59053C23.2111 9.44706 23.3975 10.3477 23.8152 11.1349C24.1173 11.708 24.2008 12.3127 24.445 12.8606C24.9849 14.0887 25.6404 15.2538 25.7753 16.6142C25.8396 16.7653 25.9039 16.9165 25.9617 17.0614C26.3859 17.9494 26.0774 18.9193 26.2766 19.864C26.7008 21.8667 26.0967 23.9514 26.6172 26.0234C26.9064 27.1697 26.6686 28.4419 26.6686 29.6511C26.6686 29.9219 26.6686 30.1927 26.6686 30.4698C26.7522 30.9863 26.9257 31.5027 26.9129 32.0128C26.8614 33.9526 27.035 35.8924 26.765 37.8385C26.5787 39.1863 26.6944 40.5781 26.6622 41.9448C26.6622 42.0581 26.5401 42.1715 26.4758 42.2849C26.4309 42.1841 26.3666 42.0896 26.3537 41.9826C26.2509 41.1827 26.3216 40.3136 26.0131 39.6019C25.5311 38.4746 25.9167 37.1016 24.9335 36.1443C24.7728 36.1191 24.6057 36.1065 24.445 36.0624C22.6841 35.6216 20.9168 35.1807 19.1559 34.7399C18.4104 35.0989 18.7382 35.7727 18.7125 36.3207C18.6675 37.2213 18.706 38.1219 18.6932 39.0225C18.6932 39.1233 18.6161 39.2303 18.5711 39.3311C18.5261 39.2429 18.4875 39.1485 18.4425 39.0603C18.1084 38.4242 17.7677 37.7881 17.44 37.152C17.003 36.3144 16.5595 35.483 16.1354 34.6391C15.7369 33.8329 15.3835 33.0016 14.9722 32.2018C14.5866 31.446 13.931 30.8162 13.8796 29.903C13.7961 29.8211 13.7125 29.7329 13.6226 29.6511C13.5197 29.6196 13.3526 29.6133 13.3269 29.5503C13.2048 29.2732 13.4362 29.1661 13.6033 28.9772C14.3809 28.0892 15.1071 27.1571 15.8526 26.2438C16.3025 25.6959 16.9066 25.2488 17.0287 24.493C14.5094 25.2425 11.9966 26.0171 9.46453 26.7351C8.00568 27.1508 6.5147 27.4972 5.03658 27.875Z" fill="#D67FEC"/>
<path d="M44.3423 24.4867C45.4733 24.8394 46.5916 25.211 47.7291 25.5448C48.8152 25.8597 49.9077 26.1431 51.0003 26.4265C52.6133 26.8422 54.2329 27.2516 55.8524 27.6546C55.9938 27.6924 56.148 27.6861 56.2958 27.6987C57.1184 26.7477 57.9539 25.803 58.7636 24.8394C58.815 24.7764 58.7508 24.5182 58.6865 24.493C58.3331 24.3545 57.986 24.1655 58.0567 23.7688C58.1338 23.3405 58.4037 22.9941 58.8408 22.7611C59.2199 22.5595 59.7598 22.2195 59.13 21.766C58.3459 21.1929 58.3588 20.7835 59.1814 20.286C59.7533 19.9396 59.9847 19.5743 59.2713 19.0138C58.2174 18.1887 59.2713 17.244 59.297 16.356C59.3292 15.2854 59.6377 14.2273 59.8369 13.1629C60.0554 12.0167 60.3317 10.883 60.5245 9.73052C60.6788 8.8173 60.1132 8.03635 59.869 7.19872C59.6312 6.38627 59.1621 5.63681 58.8729 4.83067C58.3652 3.42621 57.9924 1.96508 57.3883 0.604707C57.2341 0.252019 56.5015 0.554323 56.0966 0.869223C56.0902 0.995183 56.1287 1.18412 56.0644 1.23451C54.8948 2.10993 53.7187 2.96016 52.5426 3.82299C51.373 4.67952 50.2034 5.53604 49.0466 6.40517C47.8512 7.29949 46.6623 8.2127 45.4605 9.10701C44.4901 9.83128 43.5004 10.5367 42.5235 11.2609C41.6302 11.9222 40.7498 12.5961 39.8565 13.2574C38.9824 13.8998 38.1084 14.5359 37.228 15.1594C36.5403 15.6506 35.8462 16.123 35.1522 16.6016C35.0301 17.3952 35.7948 17.4897 36.2061 17.8486C37.3115 18.8248 38.3655 19.864 39.548 20.7457C41.1803 21.9612 42.4207 23.6428 44.3423 24.4867Z" fill="#824883"/>
<path d="M5.0372 27.8747C6.51533 27.4968 8.00631 27.1504 9.47801 26.7284C12.0037 26.0042 14.5165 25.2358 17.0422 24.4863C17.4406 24.3856 17.6655 24.0707 17.9612 23.825C19.5485 22.4773 21.1873 21.2051 22.7811 19.8699C23.8672 18.9567 24.9084 17.9931 25.9688 17.0547C25.9045 16.9035 25.8402 16.7524 25.7824 16.6075C25.7053 16.5949 25.6024 16.6012 25.5446 16.5571C24.812 16.0092 24.0857 15.455 23.3531 14.9071C22.2799 14.1072 21.1938 13.32 20.1141 12.5264C19.3172 11.9407 18.5331 11.3424 17.7298 10.763C16.8815 10.1458 16.0203 9.54745 15.172 8.92394C14.1373 8.16189 13.1283 7.36204 12.0872 6.61257C11.1039 5.8946 10.0757 5.23961 9.08598 4.53423C8.25695 3.94222 7.45362 3.31241 6.65029 2.68891C6.07189 2.24175 5.5192 1.7694 4.95366 1.30335C4.54878 1.01364 4.00252 0.34605 3.64905 0.893978C3.17348 1.62455 3.12849 2.60074 2.83287 3.45727C2.36372 4.82394 1.85602 6.17171 1.35474 7.52579C0.840612 8.91765 0.673521 10.3032 1.32904 11.7014C1.47685 12.01 1.56682 12.3564 1.61824 12.6965C1.83031 14.1639 1.94599 15.6439 2.23519 17.0925C2.36372 17.7223 2.90999 18.5473 2.42799 18.9378C0.802053 20.2667 2.5758 20.3422 3.05137 20.9154C3.14135 21.0224 3.14135 21.3814 3.09636 21.4003C1.03341 22.1939 2.47298 22.9244 3.19919 23.5038C4.04108 24.1777 3.1542 24.184 2.90999 24.4171C2.68506 24.6312 2.40228 24.7005 2.76218 25.1035C3.56551 25.979 4.28529 26.9426 5.0372 27.8747Z" fill="#824883"/>
<path d="M25.3984 43.9355C24.1388 43.1482 22.8599 42.3988 21.6324 41.5737C20.7006 40.9439 19.788 40.2889 18.7147 39.8984C18.5862 40.7802 18.734 41.6556 18.5219 42.5688C18.1878 44.0299 18.2584 45.5792 18.1299 47.0908C18.0721 47.7962 17.9757 48.5015 17.8536 49.2006C17.8407 49.2636 17.4037 49.3455 17.3716 49.2951C17.0438 48.7409 16.8382 48.0985 16.4397 47.6135C16.0348 47.116 15.8163 46.5491 15.495 46.0264C15.0194 45.2392 14.4089 44.5275 13.8948 43.7654C13.5349 43.2364 13.2392 42.6633 12.9179 42.109C12.4938 41.3785 12.0696 40.6416 11.639 39.911C10.0645 39.8732 8.52852 40.2511 6.95399 40.3078C6.06712 40.3393 5.12883 40.396 4.22267 40.4716C3.05945 40.5723 1.8898 40.6416 0.72658 40.7298C1.06719 42.0146 1.4078 43.2931 1.74842 44.5779C2.10831 45.9256 2.48105 47.2734 2.83452 48.6212C3.27153 50.2965 3.59929 52.0158 4.17126 53.647C4.44117 54.4154 5.10954 53.6974 5.56584 53.5651C7.32673 53.0676 9.08764 52.5449 10.8293 51.9906C13.0529 51.279 15.2636 50.5295 17.4808 49.7926C17.6286 49.7359 17.8086 49.717 17.9243 49.6226C19.6852 48.2748 21.4268 46.8955 23.2005 45.5667C23.8689 45.0628 24.608 44.6471 25.3085 44.1937C25.347 44.0992 25.3727 44.0173 25.3984 43.9355Z" fill="#C269D8"/>
<path d="M60.7812 40.7172C58.5191 40.6353 56.2312 40.7235 54.0011 40.396C52.6451 40.2007 51.3212 40.3645 49.9973 40.2007C49.7531 40.1693 49.5218 40.0055 49.284 39.8984C49.2197 41.0573 48.1979 41.706 47.7287 42.657C47.401 43.3246 46.8611 43.8851 46.4691 44.5212C45.9486 45.3651 45.4923 46.2531 44.9781 47.1034C44.4383 48.004 43.8663 48.8857 43.3072 49.78C44.117 50.0508 44.9267 50.328 45.7365 50.5925C47.0411 51.0207 48.3457 51.4616 49.6567 51.8773C50.9421 52.2803 52.2338 52.6456 53.5191 53.055C54.6245 53.4077 55.7042 53.8486 56.8224 54.1509C57.6836 54.3839 57.3816 53.5337 57.4715 53.2125C58.1913 50.7625 58.8468 48.2937 59.5023 45.8186C59.9522 44.1307 60.3571 42.4239 60.7812 40.7172Z" fill="#C269D8"/>
<path d="M4.95404 1.3037C5.51958 1.76346 6.07228 2.23581 6.65068 2.68927C7.45401 3.31277 8.25734 3.94257 9.08637 4.53458C10.0761 5.23996 11.1043 5.89495 12.0876 6.60663C13.1287 7.35609 14.1377 8.15594 15.1724 8.918C16.0143 9.5415 16.8819 10.1398 17.7302 10.757C18.5271 11.3364 19.3176 11.9347 20.1145 12.5205C21.1942 13.314 22.2803 14.1013 23.3535 14.9011C24.0862 15.4427 24.8124 16.0033 25.545 16.5512C25.6028 16.5953 25.6992 16.5827 25.7828 16.6016C25.6414 15.2412 24.9923 14.0761 24.4525 12.848C24.2147 12.3 24.1247 11.6891 23.8227 11.1223C23.4114 10.335 23.225 9.43443 22.9551 8.5779C22.8844 8.33858 22.9936 8.23151 23.2764 8.23151C28.2249 8.23781 33.167 8.22522 38.1155 8.25671C38.6361 8.263 38.2505 8.82982 38.2055 8.94949C37.6078 10.5681 37.0551 12.2182 36.2582 13.736C35.7698 14.6681 35.4613 15.6254 35.1593 16.6016C35.8533 16.1229 36.5474 15.6506 37.2351 15.1593C38.1155 14.5295 38.996 13.8997 39.8636 13.2573C40.7569 12.596 41.6373 11.9221 42.5306 11.2609C43.5075 10.5366 44.4907 9.83121 45.4676 9.10694C46.6694 8.21262 47.8519 7.29941 49.0537 6.40509C50.2169 5.53597 51.3865 4.67944 52.5498 3.82291C53.7258 2.96008 54.9083 2.10985 56.0716 1.23443C56.1358 1.18404 56.0973 0.995101 56.1037 0.869141C55.1911 1.18404 54.2592 1.46115 53.3659 1.82014C52.2798 2.261 51.2323 2.78374 50.159 3.24349C48.9058 3.78512 47.6398 4.30156 46.3738 4.81169C44.992 5.37222 43.591 5.89495 42.2093 6.46177C41.1553 6.89004 40.1206 7.36869 39.0731 7.80955C38.8867 7.89142 38.6811 7.9607 38.4818 7.9607C33.2698 7.9733 28.0514 8.06147 22.8394 7.91032C21.5669 7.87253 20.3201 7.06008 19.0669 6.59403C17.7238 6.09019 16.3742 5.59895 15.0374 5.06991C13.5143 4.4653 12.0041 3.81661 10.481 3.212C9.1185 2.66407 7.74963 2.12874 6.3679 1.6249C5.91804 1.46115 5.51316 1.03289 4.95404 1.3037Z" fill="#C269D8"/>
<path d="M18.4544 50.1509C19.232 50.6421 19.9904 51.1586 20.7937 51.612C21.6356 52.0844 22.5032 52.5063 23.3708 52.9346C23.9942 53.2432 24.624 53.5266 25.2538 53.8163C27.8759 53.8163 30.5044 53.8163 33.1264 53.81C33.3128 53.81 33.4478 53.8352 33.4221 54.0556C35.2151 54.2572 36.5583 53.0795 38.1135 52.5567C39.0775 52.2292 39.9837 51.7506 40.8898 51.2845C41.4297 51.0074 41.9181 50.6232 42.4258 50.2894C41.9052 50.1572 41.4875 50.2013 40.9219 50.4091C39.688 50.8751 38.332 51.0074 37.0274 51.2971C36.5904 51.3916 36.1212 51.4672 35.7614 51.7002C35.6007 51.801 35.4722 51.8639 35.3243 51.8387C35.2537 51.8261 35.1701 51.6498 35.1637 51.5427C35.0866 50.661 35.3308 49.7541 34.958 48.885C31.5969 48.23 28.2422 48.3811 24.8875 48.8913C24.5662 49.2251 24.7204 49.5274 24.8168 49.9241C24.9646 50.5099 25.0289 51.1775 24.8811 51.7506C24.7911 52.097 24.7461 51.5616 24.5469 51.5238C23.313 51.2845 22.0533 51.083 20.8901 50.6547C20.5752 50.5351 20.0611 50.724 19.804 50.2202C19.6498 49.9241 19.0714 50.3713 18.75 49.9871C18.5765 49.7919 18.4544 49.9115 18.4544 50.1509Z" fill="#C6B5A7"/>
<path d="M43.3123 49.7863C43.8714 48.892 44.4434 48.0103 44.9832 47.1097C45.4974 46.2594 45.9536 45.3714 46.4742 44.5275C46.8662 43.8914 47.4061 43.3246 47.7338 42.6633C48.203 41.7123 49.2248 41.0699 49.2891 39.9047C46.8469 39.9047 44.4113 39.9047 41.9691 39.8984C42.0848 40.6101 41.9563 41.3029 42.1684 42.0524C42.554 43.3812 42.6375 44.8046 42.7917 46.1902C42.9203 47.3364 42.9717 48.4952 43.0617 49.6478C43.1066 49.6918 43.1452 49.7359 43.1902 49.7863C43.2288 49.7863 43.2737 49.7863 43.3123 49.7863Z" fill="#B06AD1"/>
<path d="M43.1914 49.7859C43.1464 49.7418 43.1079 49.6977 43.0629 49.6473C42.2403 49.0931 41.4241 48.5326 40.595 47.9783C39.1748 47.0399 37.793 46.026 36.3085 45.2009C35.6658 44.8482 35.3059 44.0673 34.464 44.0547C34.4833 44.4011 34.4897 44.7538 34.5283 45.0939C34.6697 46.3598 34.8175 47.6194 34.9589 48.8853C35.3316 49.7481 35.081 50.655 35.1645 51.543C35.1774 51.6501 35.2545 51.8264 35.3252 51.839C35.473 51.8642 35.6016 51.8012 35.7622 51.7005C36.1221 51.4738 36.5913 51.3982 37.0283 51.2974C38.3329 51.0077 39.6889 50.8691 40.9228 50.4094C41.4883 50.1953 41.9125 50.1575 42.4266 50.2897C42.6837 50.1197 42.9343 49.9496 43.1914 49.7859Z" fill="#D9C5B8"/>
<path d="M18.4534 50.1512C18.4534 49.9182 18.5755 49.7922 18.7426 50.0001C19.0575 50.3842 19.6423 49.9371 19.7966 50.2331C20.0536 50.7369 20.5678 50.5543 20.8827 50.6676C22.0459 51.0959 23.3055 51.2974 24.5394 51.5368C24.7387 51.5746 24.7837 52.1162 24.8736 51.7635C25.0214 51.1904 24.9636 50.5228 24.8094 49.9371C24.7065 49.5466 24.5587 49.238 24.8801 48.9042C24.8801 48.6964 24.8672 48.4885 24.8929 48.287C25.0793 46.9266 25.4456 45.5788 25.3106 44.1807C24.6037 44.6341 23.8711 45.0498 23.2027 45.5536C21.4289 46.8888 19.6873 48.2618 17.9264 49.6096C17.8043 49.704 17.6308 49.7229 17.483 49.7796C17.8107 49.9056 18.1321 50.0252 18.4534 50.1512Z" fill="#D9C5B8"/>
<path d="M33.4226 54.056C33.4483 53.8293 33.3134 53.8041 33.127 53.8104C30.5049 53.8167 27.8765 53.8167 25.2544 53.8167C25.3508 53.8986 25.4536 54.0497 25.5564 54.0497C28.1785 54.0623 30.8006 54.0623 33.4226 54.056Z" fill="#D9C5B8"/>
<path d="M44.3442 24.4872C42.4226 23.6433 41.1759 21.9617 39.5499 20.7525C38.3674 19.8708 37.3134 18.8379 36.2081 17.8554C35.7967 17.4901 35.0384 17.4019 35.1541 16.6084C35.0448 16.6714 34.852 16.7281 34.8456 16.7973C34.7428 18.1703 34.6464 19.537 34.5821 20.9099C34.4857 22.8938 34.6078 24.9155 34.2351 26.8489C34.0487 27.7999 34.1644 28.7195 34.0037 29.639C38.4381 29.5571 42.8661 29.4689 47.3004 29.387C47.3197 28.5431 46.5035 28.1841 46.1694 27.5291C45.8223 26.8426 45.2825 26.2443 44.7941 25.6271C44.5177 25.2807 44.0357 25.0414 44.3442 24.4872Z" fill="#C269D8"/>
<path d="M25.9706 17.042C24.9103 17.9804 23.8691 18.9503 22.783 19.8572C21.1892 21.1924 19.544 22.4709 17.9631 23.8124C17.6674 24.0643 17.4425 24.3729 17.044 24.4736C16.9219 25.2294 16.3178 25.6766 15.868 26.2245C15.116 27.1377 14.3963 28.0698 13.6186 28.9578C13.458 29.1468 13.2202 29.2538 13.3423 29.5309C13.368 29.5939 13.5351 29.6002 13.6379 29.6317C13.6058 29.342 13.8114 29.3798 13.9914 29.3798C17.1854 29.3987 20.3795 29.3168 23.5671 29.6191C24.5953 29.7136 25.6429 29.638 26.6776 29.638C26.6776 28.4225 26.9154 27.1503 26.6262 26.0104C26.1056 23.9446 26.7033 21.8537 26.2856 19.8509C26.0863 18.8999 26.3948 17.9363 25.9706 17.042Z" fill="#C269D8"/>
<path d="M25.3171 44.1807C25.452 45.5725 25.0857 46.9203 24.8993 48.287C24.8736 48.4885 24.8865 48.6963 24.8865 48.9042C28.2412 48.3877 31.6023 48.2366 34.957 48.8979C34.8092 47.632 34.6614 46.3724 34.5264 45.1065C34.4879 44.7601 34.4815 44.4137 34.4622 44.0673C34.4558 44.0043 34.4493 43.9413 34.4429 43.8784C34.1023 43.6642 33.7617 43.4564 33.4275 43.2423C31.2296 43.2423 29.0252 43.2486 26.8273 43.2423C26.7566 43.2423 26.6859 43.1667 26.6153 43.1289C26.2104 43.3997 25.8055 43.6705 25.4006 43.9476C25.3685 44.0169 25.3428 44.0988 25.3171 44.1807Z" fill="#161616"/>
<path d="M47.3008 29.3867C42.8664 29.4686 38.4384 29.5568 34.0041 29.6386C34.0298 30.1992 34.049 30.7282 34.274 31.295C34.5632 32.0256 34.2933 32.9892 34.6403 33.6756C35.0002 34.4062 34.4282 35.3509 35.2894 35.8799C35.4822 35.5461 35.5914 35.0486 35.8806 34.9163C36.9025 34.444 35.8999 31.7296 38.2842 32.8506C39.4474 33.3985 40.6171 33.9402 41.7867 34.4881C42.4615 34.7211 42.6029 34.0976 42.9242 33.789C43.7597 32.9892 44.563 32.1515 45.3985 31.3517C45.9255 30.8416 46.4975 30.3755 47.0437 29.8906C47.1337 29.7205 47.2172 29.5568 47.3008 29.3867Z" fill="#B06AD1"/>
<path d="M26.6758 29.6387C25.6347 29.6387 24.5936 29.7206 23.5653 29.6198C20.3777 29.3238 17.1837 29.3994 13.9896 29.3805C13.8097 29.3805 13.5976 29.3427 13.6362 29.6324C13.7197 29.7143 13.8032 29.8025 13.8932 29.8844C14.748 30.6779 15.5963 31.4841 16.4639 32.265C17.2929 33.0082 17.897 33.9907 18.9574 34.4819C19.6708 34.1355 20.3584 33.5561 21.1039 33.4931C22.0486 33.4049 22.7877 31.5722 23.8224 33.0334C24.4457 33.9151 24.7092 35.0361 25.1334 36.0564C25.2555 36.0312 25.4804 36.0312 25.4933 35.9808C25.6989 35.0928 25.7503 34.1922 26.0524 33.3042C26.3416 32.4791 26.2581 31.5344 26.3673 30.6464C26.3737 30.5708 26.5665 30.5142 26.6758 30.4512C26.6758 30.1804 26.6758 29.9096 26.6758 29.6387Z" fill="#B06AD1"/>
<path d="M34.4444 43.872C34.4508 43.935 34.4572 43.998 34.4637 44.061C35.3055 44.0736 35.6719 44.8482 36.3081 45.2072C37.7927 46.0323 39.1744 47.0399 40.5947 47.9846C41.4237 48.5326 42.2399 49.0931 43.0625 49.6536C42.9725 48.5011 42.9211 47.3485 42.7926 46.196C42.6383 44.8104 42.5548 43.3871 42.1692 42.0582C41.9507 41.3088 42.0792 40.616 41.97 39.9043C41.2952 40.257 40.6268 40.6223 39.952 40.9687C39.1937 41.3591 38.416 41.7055 37.6705 42.1149C36.8994 42.5369 36.1667 43.0155 35.4019 43.4438C35.0999 43.6138 34.7657 43.7272 34.4444 43.872Z" fill="#C269D8"/>
<path d="M11.643 39.9042C12.0672 40.6348 12.4913 41.3716 12.9219 42.1022C13.2433 42.6564 13.5389 43.2295 13.8988 43.7586C14.4129 44.5269 15.017 45.2386 15.499 46.0196C15.8203 46.5423 16.0324 47.1091 16.4437 47.6067C16.8486 48.0916 17.0478 48.734 17.3756 49.2882C17.4013 49.3386 17.8447 49.2505 17.8576 49.1938C17.9797 48.4947 18.0761 47.7956 18.1339 47.0839C18.256 45.5724 18.1918 44.0231 18.526 42.562C18.738 41.6424 18.5902 40.7733 18.7188 39.8916C16.3537 39.8979 14.0016 39.8979 11.643 39.9042Z" fill="#B06AD1"/>
<path d="M18.9559 34.4882C17.8955 33.9969 17.2914 33.0144 16.4624 32.2713C15.5948 31.4903 14.7464 30.6842 13.8917 29.8906C13.9431 30.7975 14.5986 31.4336 14.9842 32.1894C15.3955 32.9892 15.7426 33.8206 16.1474 34.6267C16.5652 35.4707 17.015 36.302 17.4521 37.1396C17.7862 37.7757 18.1204 38.4118 18.4546 39.0479C18.4996 39.1361 18.5446 39.2306 18.5831 39.3187C18.6281 39.218 18.7052 39.1172 18.7052 39.0101C18.7181 38.1095 18.6795 37.2026 18.7245 36.3083C18.7502 35.7604 18.4161 35.0928 19.168 34.7275C19.0973 34.6456 19.0266 34.5637 18.9559 34.4882Z" fill="#C269D8"/>
<path d="M47.0391 29.8906C46.4864 30.3756 45.9208 30.8479 45.3938 31.3518C44.5584 32.1516 43.7615 32.9892 42.9196 33.7891C42.5982 34.0977 42.4569 34.7149 41.7821 34.4882C41.7114 34.57 41.6471 34.6519 41.5764 34.7338C42.444 35.9493 41.7306 37.316 41.962 38.5882C42.007 38.8275 42.0391 39.0731 42.0777 39.3187C42.2319 39.1172 42.4119 38.9283 42.534 38.7078C43.1831 37.5112 43.9157 36.3461 44.4234 35.0928C44.8604 34.0158 45.6445 33.1341 45.953 31.969C46.1393 31.2636 46.9876 30.7535 47.0391 29.8906Z" fill="#C269D8"/>
<path d="M35.288 35.88C34.4204 35.351 34.9988 34.4 34.639 33.6757C34.2983 32.9892 34.5618 32.0319 34.2726 31.2951C34.0477 30.7219 34.0284 30.1992 34.0027 29.6387C33.9192 29.7205 33.7842 29.7961 33.7585 29.8969C33.7199 30.0669 33.7521 30.2496 33.7456 30.4259C33.5914 33.8646 33.2829 37.2971 33.4115 40.7421C33.4243 41.0948 33.2187 41.4475 33.1801 41.8064C33.1544 42.0647 33.2444 42.3292 33.2765 42.5937C33.4307 42.3166 33.6557 42.0584 33.7328 41.7687C34.1248 40.2634 34.459 38.7519 34.8575 37.2467C34.9603 36.8562 35.2238 36.5098 35.4102 36.1382C35.3716 36.0501 35.333 35.9619 35.288 35.88Z" fill="#C269D8"/>
<path d="M25.1322 36.056C25.068 36.0812 25.0037 36.1063 24.9459 36.1315C25.9292 37.0888 25.5436 38.4618 26.0256 39.5891C26.3276 40.3071 26.2569 41.1762 26.3662 41.9698C26.379 42.0769 26.4497 42.1713 26.4883 42.2721C26.5525 42.1587 26.6682 42.0454 26.6746 41.932C26.7068 40.559 26.5911 39.1735 26.7775 37.8257C27.0474 35.8796 26.8739 33.9398 26.9253 32C26.9381 31.4899 26.7711 30.9735 26.6811 30.457C26.5718 30.52 26.3854 30.5767 26.3726 30.6523C26.2633 31.5403 26.3405 32.485 26.0577 33.31C25.7492 34.1981 25.7042 35.0987 25.4986 35.9867C25.4793 36.0308 25.2543 36.0308 25.1322 36.056Z" fill="#C269D8"/>
<path d="M26.6096 43.1228C26.6803 43.1606 26.751 43.2362 26.8217 43.2362C29.0196 43.2425 31.224 43.2362 33.4219 43.2362C33.3383 43.1543 33.2612 43.0095 33.1777 43.0095C31.0633 42.9969 28.9554 42.9969 26.841 43.0032C26.7639 42.9969 26.6868 43.0787 26.6096 43.1228Z" fill="#824883"/>
</svg>
